<?xml version="1.0" encoding="UTF-8" standalone="no"?>
<!DOCTYPE svg PUBLIC "-//W3C//DTD SVG 1.1//EN" "http://www.w3.org/Graphics/SVG/1.1/DTD/svg11.dtd">
<svg xmlns="http://www.w3.org/2000/svg" version="1.1" viewBox="0.00 0.00 1909.00 851.00">
<path fill="#0b2b4f" d="
  M 1033.80 208.76
  Q 1031.57 219.71 1030.99 229.75
  C 1029.07 263.20 1043.53 297.88 1070.82 317.44
  Q 1084.01 326.90 1102.49 332.78
  C 1127.37 340.69 1155.95 346.32 1182.05 343.53
  Q 1182.60 343.47 1182.71 344.02
  L 1182.89 344.99
  Q 1183.01 345.58 1182.41 345.70
  Q 1163.06 349.36 1139.47 347.26
  C 1098.74 343.65 1061.66 334.60 1036.69 300.80
  C 1020.02 278.25 1011.43 247.34 1013.03 219.75
  Q 1013.66 208.76 1017.01 193.67
  Q 1017.12 193.18 1016.84 192.76
  C 1001.62 170.05 1008.13 139.85 1030.49 125.48
  C 1057.49 108.13 1093.95 121.86 1102.74 152.74
  Q 1107.32 168.82 1101.08 183.83
  C 1090.11 210.26 1059.95 221.32 1034.38 208.48
  Q 1033.90 208.24 1033.80 208.76
  Z"
/>
<path fill="#0b2b4f" d="
  M 1141.01 228.24
  Q 1140.68 227.38 1140.37 228.25
  L 1105.93 325.35
  Q 1105.81 325.67 1105.49 325.58
  L 1099.41 323.88
  Q 1099.19 323.82 1099.27 323.60
  L 1153.50 172.52
  Q 1153.69 172.00 1154.24 172.00
  L 1158.70 172.00
  Q 1159.22 172.00 1159.40 172.49
  L 1253.17 419.06
  Q 1253.37 419.58 1253.93 419.58
  L 1313.75 419.75
  Q 1314.25 419.75 1314.25 419.25
  L 1314.25 215.00
  Q 1314.25 214.50 1313.75 214.50
  L 1290.00 214.50
  Q 1289.50 214.50 1289.50 214.00
  L 1289.50 209.30
  Q 1289.50 209.00 1289.79 209.00
  Q 1306.76 208.99 1324.00 209.09
  C 1332.88 209.14 1335.87 206.71 1340.29 200.10
  Q 1340.75 199.40 1340.75 200.24
  L 1340.75 419.25
  Q 1340.75 419.75 1341.25 419.75
  L 1365.25 419.75
  Q 1365.50 419.75 1365.50 420.00
  L 1365.50 426.27
  Q 1365.50 426.53 1365.23 426.53
  L 1176.01 426.53
  Q 1175.75 426.53 1175.75 426.26
  L 1175.75 420.00
  Q 1175.75 419.75 1176.00 419.75
  L 1212.99 419.75
  A 0.21 0.20 -10.4 0 0 1213.19 419.47
  Q 1199.59 384.00 1185.98 348.45
  C 1184.81 345.39 1183.00 341.79 1181.97 338.73
  C 1181.78 338.15 1182.02 337.61 1181.72 336.82
  Q 1161.29 282.37 1141.01 228.24
  Z"
/>
<path fill="#0b2b4f" d="
  M 256.25 340.49
  L 256.25 434.25
  Q 256.25 434.75 256.75 434.75
  L 289.25 434.75
  Q 289.50 434.75 289.50 435.00
  L 289.50 440.25
  A 0.25 0.25 0.0 0 1 289.25 440.50
  L 193.81 440.50
  A 0.30 0.29 90.0 0 1 193.52 440.20
  L 193.49 435.00
  Q 193.49 434.75 193.75 434.75
  L 224.25 434.75
  Q 224.75 434.75 224.75 434.25
  L 224.75 231.00
  Q 224.75 230.50 224.25 230.50
  L 193.75 230.50
  Q 193.51 230.50 193.51 230.25
  L 193.50 225.00
  Q 193.50 224.77 193.72 224.77
  Q 235.90 224.71 278.16 224.78
  C 306.10 224.83 334.53 228.64 357.65 244.07
  C 375.97 256.30 380.59 286.59 372.13 306.01
  C 365.12 322.09 348.66 333.60 332.51 339.32
  C 315.83 345.23 297.84 346.60 280.30 345.51
  C 271.66 344.97 264.89 342.69 256.83 340.06
  Q 256.25 339.87 256.25 340.49
  Z
  M 340.80 271.50
  C 336.96 250.41 324.28 240.54 304.49 234.83
  C 288.91 230.34 272.81 229.45 256.67 230.82
  Q 256.25 230.86 256.25 231.28
  L 256.25 332.00
  Q 256.25 332.51 256.68 332.78
  Q 265.24 338.05 274.75 339.03
  C 290.19 340.61 309.29 338.76 322.22 329.71
  C 341.66 316.10 344.86 293.82 340.80 271.50
  Z"
/>
<path fill="#0b2b4f" d="
  M 785.00 315.25
  L 825.25 315.25
  A 0.25 0.24 90.0 0 1 825.49 315.50
  L 825.50 320.75
  A 0.25 0.24 -1.1 0 1 825.25 321.00
  L 784.99 321.00
  A 0.49 0.48 -0.0 0 0 784.50 321.48
  Q 784.49 371.79 784.51 422.00
  C 784.52 429.82 787.87 436.80 796.24 437.79
  C 808.42 439.24 816.36 429.11 820.43 419.10
  Q 820.54 418.82 820.83 418.90
  L 825.24 420.08
  Q 825.57 420.16 825.45 420.48
  C 820.89 432.92 812.68 441.66 798.99 443.46
  C 779.78 445.97 757.81 439.05 757.78 415.75
  Q 757.72 368.47 757.76 321.28
  Q 757.76 321.00 757.48 321.00
  L 731.75 321.00
  Q 731.24 321.00 731.24 320.50
  L 731.26 315.71
  Q 731.26 315.21 731.76 315.22
  Q 739.78 315.39 743.45 315.16
  C 765.62 313.76 779.52 293.33 779.78 272.54
  Q 779.79 272.30 780.03 272.28
  L 784.20 271.94
  A 0.27 0.27 0.0 0 1 784.50 272.21
  L 784.50 314.75
  Q 784.50 315.25 785.00 315.25
  Z"
/>
<path fill="#0b2b4f" d="
  M 1657.34 328.01
  C 1667.59 300.25 1696.02 289.94 1723.23 298.33
  C 1736.04 302.28 1745.94 312.31 1747.48 325.98
  C 1747.82 329.00 1748.00 333.30 1748.00 337.01
  Q 1748.00 378.79 1748.00 420.48
  Q 1748.00 420.75 1748.27 420.75
  L 1772.75 420.75
  Q 1773.00 420.75 1773.00 421.00
  L 1772.99 426.25
  A 0.25 0.24 90.0 0 1 1772.75 426.50
  L 1696.50 426.50
  A 0.25 0.24 90.0 0 1 1696.26 426.25
  L 1696.25 421.00
  Q 1696.25 420.75 1696.50 420.75
  L 1720.73 420.75
  Q 1721.23 420.75 1721.23 420.24
  Q 1721.29 370.98 1721.22 321.76
  Q 1721.21 317.24 1718.87 312.55
  C 1713.20 301.17 1701.06 299.85 1690.08 302.99
  C 1675.88 307.05 1661.30 322.35 1657.92 336.84
  Q 1656.98 340.84 1656.99 350.72
  Q 1657.01 385.64 1657.00 420.48
  Q 1657.00 420.75 1657.27 420.75
  L 1681.25 420.75
  Q 1681.50 420.75 1681.50 421.00
  L 1681.50 426.25
  A 0.25 0.25 0.0 0 1 1681.25 426.50
  L 1605.50 426.50
  A 0.25 0.24 90.0 0 1 1605.26 426.25
  L 1605.25 421.00
  Q 1605.25 420.75 1605.50 420.75
  L 1630.49 420.75
  A 0.29 0.28 -90.0 0 0 1630.77 420.46
  Q 1630.75 371.26 1630.61 322.00
  C 1630.57 310.52 1625.10 301.99 1613.52 300.74
  C 1592.58 298.47 1573.78 316.59 1567.34 335.25
  Q 1566.25 338.42 1566.25 342.40
  Q 1566.23 381.32 1566.26 420.24
  Q 1566.26 420.75 1566.77 420.75
  L 1590.25 420.75
  Q 1590.50 420.75 1590.50 421.00
  L 1590.50 426.25
  A 0.25 0.25 0.0 0 1 1590.25 426.50
  L 1515.25 426.50
  A 0.25 0.24 90.0 0 1 1515.01 426.25
  L 1515.00 421.00
  Q 1515.00 420.75 1515.25 420.75
  L 1539.75 420.75
  A 0.25 0.25 0.0 0 0 1540.00 420.50
  L 1540.00 307.00
  Q 1540.00 306.75 1539.75 306.75
  L 1515.50 306.75
  Q 1515.01 306.75 1515.00 306.25
  L 1515.00 301.29
  Q 1515.00 301.00 1515.29 301.00
  Q 1533.76 301.00 1552.50 301.00
  C 1557.39 301.00 1563.27 298.65 1565.59 293.84
  Q 1566.25 292.45 1566.25 293.99
  L 1566.25 324.76
  Q 1566.25 326.65 1566.92 324.88
  C 1573.75 307.13 1593.45 296.07 1611.75 295.00
  C 1632.74 293.78 1650.87 300.52 1655.80 323.11
  Q 1656.33 325.52 1656.88 327.98
  Q 1657.06 328.77 1657.34 328.01
  Z"
/>
<path fill="#0b2b4f" d="
  M 1407.53 351.82
  C 1407.10 365.53 1406.03 378.38 1408.11 392.74
  Q 1409.95 405.43 1413.57 412.18
  C 1420.72 425.50 1438.38 426.63 1451.51 425.39
  C 1476.09 423.07 1492.02 405.01 1499.22 382.64
  Q 1499.30 382.40 1499.55 382.44
  L 1504.46 383.30
  Q 1504.69 383.34 1504.64 383.57
  C 1500.15 403.47 1487.04 419.80 1467.87 426.81
  C 1428.03 441.37 1381.49 414.73 1377.52 371.13
  Q 1374.98 343.27 1392.67 320.67
  C 1402.46 308.15 1415.50 298.39 1431.32 295.45
  C 1446.59 292.61 1462.17 296.56 1474.76 305.75
  C 1488.34 315.67 1496.65 329.58 1501.44 345.51
  C 1502.69 349.68 1502.50 351.28 1497.71 351.27
  Q 1452.90 351.17 1408.09 351.29
  Q 1407.55 351.29 1407.53 351.82
  Z
  M 1455.07 301.92
  C 1445.88 298.18 1431.94 298.33 1423.06 302.60
  C 1415.50 306.23 1413.42 312.03 1411.17 320.48
  Q 1408.03 332.33 1407.56 344.72
  Q 1407.54 345.23 1408.06 345.23
  Q 1437.20 345.29 1466.34 345.23
  C 1468.60 345.23 1470.71 346.30 1470.77 342.78
  Q 1471.02 328.33 1466.56 314.65
  Q 1463.53 305.36 1455.07 301.92
  Z"
/>
<path fill="#0b2b4f" d="
  M 612.76 338.95
  C 624.79 316.82 648.61 307.44 673.17 310.07
  C 697.10 312.64 708.96 326.26 708.96 350.75
  Q 708.98 392.50 709.02 434.26
  Q 709.02 434.75 709.51 434.75
  L 733.50 434.75
  Q 733.75 434.75 733.75 435.00
  L 733.75 440.25
  A 0.25 0.25 0.0 0 1 733.50 440.50
  L 658.00 440.50
  A 0.50 0.50 0.0 0 1 657.50 440.00
  L 657.50 435.25
  Q 657.50 434.75 658.00 434.75
  L 681.73 434.75
  Q 682.23 434.75 682.23 434.25
  Q 682.30 387.66 682.22 341.11
  C 682.20 327.67 679.79 316.35 663.99 315.60
  C 641.52 314.53 622.43 328.91 613.37 348.83
  C 612.57 350.60 612.01 351.81 612.01 353.80
  Q 611.97 394.02 612.01 434.25
  Q 612.01 434.75 612.52 434.75
  L 637.00 434.75
  Q 637.25 434.75 637.25 435.00
  L 637.25 440.25
  A 0.25 0.25 0.0 0 1 637.00 440.50
  L 561.50 440.50
  A 0.25 0.24 90.0 0 1 561.26 440.25
  L 561.25 435.00
  Q 561.25 434.75 561.50 434.75
  L 585.75 434.75
  A 0.25 0.25 0.0 0 0 586.00 434.50
  L 586.00 321.00
  Q 586.00 320.50 585.50 320.50
  L 561.50 320.50
  Q 561.26 320.50 561.26 320.25
  L 561.24 315.27
  Q 561.24 315.00 561.51 315.00
  C 574.10 315.00 587.34 315.72 599.94 314.57
  Q 607.85 313.84 611.25 307.30
  Q 612.00 305.86 612.00 307.48
  L 612.01 338.76
  Q 612.01 340.34 612.76 338.95
  Z"
/>
<path fill="#0b2b4f" d="
  M 502.75 412.25
  Q 502.75 411.17 502.26 412.13
  C 492.24 432.04 478.82 443.18 455.82 444.47
  C 442.17 445.23 429.31 443.15 418.17 435.35
  C 407.02 427.54 405.23 416.33 405.24 403.39
  Q 405.27 362.45 405.24 321.51
  Q 405.24 321.00 404.73 321.00
  L 380.50 321.00
  Q 380.24 321.00 380.24 320.75
  L 380.26 315.55
  Q 380.26 315.25 380.56 315.25
  Q 398.02 315.25 415.72 315.25
  C 424.29 315.25 426.29 314.57 431.24 307.88
  Q 431.75 307.20 431.75 308.05
  Q 431.77 361.41 431.74 414.75
  C 431.73 427.43 435.70 437.32 449.92 438.64
  C 477.38 441.19 502.74 417.47 502.75 390.00
  Q 502.76 355.75 502.75 321.50
  Q 502.74 321.00 502.24 321.00
  L 478.50 321.00
  A 0.26 0.26 0.0 0 1 478.24 320.74
  L 478.26 315.53
  Q 478.26 315.26 478.52 315.26
  Q 495.32 315.22 512.28 315.27
  Q 518.12 315.29 521.05 314.03
  Q 525.38 312.17 528.11 308.14
  Q 529.25 306.46 529.25 308.49
  L 529.25 434.25
  Q 529.25 434.75 529.75 434.75
  L 553.50 434.75
  Q 553.75 434.75 553.75 435.00
  L 553.75 440.25
  A 0.25 0.25 0.0 0 1 553.50 440.50
  L 503.25 440.50
  Q 502.75 440.50 502.75 440.00
  L 502.75 412.25
  Z"
/>
<path fill="#0b2b4f" d="
  M 962.20 338.52
  C 987.90 372.87 973.01 417.99 936.75 437.21
  C 916.02 448.19 888.79 446.80 869.36 434.15
  C 850.75 422.04 836.60 403.44 835.10 380.71
  Q 833.50 356.33 850.23 337.46
  C 863.59 322.40 882.14 310.90 902.55 309.32
  C 905.66 309.08 908.82 308.66 911.83 308.88
  C 932.49 310.41 949.99 322.20 962.20 338.52
  Z
  M 878.60 320.92
  C 868.69 327.94 865.35 340.29 865.31 352.00
  Q 865.22 376.63 865.25 401.25
  C 865.28 428.11 878.70 439.92 905.03 440.12
  C 918.33 440.22 934.66 438.22 940.93 424.70
  C 945.04 415.84 945.39 405.98 945.45 396.25
  Q 945.59 375.09 945.49 353.91
  C 945.41 335.49 940.23 317.77 919.22 314.82
  C 906.00 312.95 889.34 313.33 878.60 320.92
  Z"
/>
<path fill="#0b2b4f" d="
  M 1070.86 402.21
  C 1077.76 383.48 1084.38 364.65 1091.29 345.92
  Q 1091.43 345.53 1091.82 345.69
  L 1097.26 347.94
  Q 1097.84 348.18 1097.63 348.77
  Q 1084.87 383.75 1081.44 393.49
  Q 1079.52 398.96 1077.86 406.16
  C 1076.32 412.86 1079.03 417.11 1085.82 418.62
  C 1095.28 420.71 1104.50 420.18 1114.01 419.79
  Q 1114.25 419.78 1114.25 420.02
  L 1114.25 426.25
  A 0.25 0.25 0.0 0 1 1114.00 426.50
  L 1035.25 426.50
  A 0.25 0.24 90.0 0 1 1035.01 426.25
  L 1035.00 420.01
  A 0.26 0.26 0.0 0 1 1035.28 419.75
  Q 1049.02 420.52 1055.77 418.99
  C 1064.34 417.05 1068.08 409.74 1070.86 402.21
  Z"
/>
<path fill="#d5b983" d="
  M 1225.29 554.05
  C 1234.81 573.53 1230.68 599.31 1213.43 613.18
  C 1203.88 620.85 1190.35 623.43 1177.98 623.12
  C 1155.55 622.55 1136.85 611.49 1131.42 588.75
  C 1125.04 562.08 1138.65 535.73 1166.76 530.50
  C 1189.29 526.32 1214.35 531.67 1225.29 554.05
  Z
  M 1188.87 611.87
  C 1203.59 608.70 1213.10 598.20 1215.81 583.78
  Q 1217.21 576.35 1215.95 569.24
  C 1212.78 551.33 1199.60 540.25 1181.70 539.56
  C 1155.42 538.55 1139.21 560.48 1144.63 585.25
  C 1149.19 606.07 1168.78 616.20 1188.87 611.87
  Z"
/>
<path fill="#d5b983" d="
  M 1342.07 604.06
  C 1335.05 622.16 1309.48 623.97 1293.50 622.85
  C 1276.47 621.65 1261.12 613.16 1259.92 594.40
  Q 1259.89 594.00 1260.29 594.00
  L 1273.24 594.00
  Q 1273.73 594.00 1273.74 594.49
  C 1274.35 616.41 1312.30 615.85 1324.72 607.01
  C 1330.77 602.70 1333.61 593.38 1327.20 588.07
  Q 1324.82 586.09 1320.70 584.89
  C 1305.32 580.42 1289.21 582.07 1274.34 575.42
  C 1265.43 571.43 1261.83 562.79 1262.89 553.27
  C 1265.72 527.72 1300.92 526.79 1319.24 531.26
  C 1331.25 534.18 1339.86 541.98 1341.08 554.86
  Q 1341.14 555.50 1340.50 555.50
  L 1327.81 555.50
  Q 1327.38 555.50 1327.31 555.08
  Q 1325.45 544.98 1315.59 541.88
  C 1304.40 538.37 1287.21 537.60 1278.68 547.43
  C 1275.93 550.60 1274.86 555.72 1276.56 559.56
  C 1278.55 564.02 1283.87 566.01 1288.39 566.80
  Q 1306.53 569.94 1324.64 573.20
  C 1340.10 575.98 1347.83 589.21 1342.07 604.06
  Z"
/>
<path fill="#d5b983" d="
  M 604.25 542.30
  L 604.25 569.45
  A 0.30 0.30 0.0 0 0 604.55 569.75
  L 654.20 569.75
  A 0.30 0.30 0.0 0 1 654.50 570.05
  L 654.50 579.70
  A 0.30 0.30 0.0 0 1 654.20 580.00
  L 604.55 580.00
  A 0.30 0.30 0.0 0 0 604.25 580.30
  L 604.25 610.20
  A 0.30 0.30 0.0 0 0 604.55 610.50
  L 659.20 610.50
  A 0.30 0.30 0.0 0 1 659.50 610.80
  L 659.50 620.45
  A 0.30 0.30 0.0 0 1 659.20 620.75
  L 591.55 620.75
  A 0.30 0.30 0.0 0 1 591.25 620.45
  L 591.25 531.80
  A 0.30 0.30 0.0 0 1 591.55 531.50
  L 657.70 531.50
  A 0.30 0.30 0.0 0 1 658.00 531.80
  L 658.00 541.70
  A 0.30 0.30 0.0 0 1 657.70 542.00
  L 604.55 542.00
  A 0.30 0.30 0.0 0 0 604.25 542.30
  Z"
/>
<path fill="#d5b983" d="
  M 766.99 531.50
  L 780.11 531.51
  A 0.34 0.34 0.0 0 1 780.42 531.99
  L 739.69 620.55
  A 0.34 0.34 0.0 0 1 739.38 620.75
  L 723.93 620.75
  A 0.34 0.34 0.0 0 1 723.62 620.55
  L 683.02 531.98
  A 0.34 0.34 0.0 0 1 683.33 531.50
  L 697.06 531.50
  A 0.34 0.34 0.0 0 1 697.37 531.70
  L 731.78 608.77
  A 0.34 0.34 0.0 0 0 732.40 608.77
  L 766.68 531.70
  A 0.34 0.34 0.0 0 1 766.99 531.50
  Z"
/>
<path fill="#d5b983" d="
  M 820.50 542.33
  L 820.50 569.42
  A 0.33 0.33 0.0 0 0 820.83 569.75
  L 870.42 569.75
  A 0.33 0.33 0.0 0 1 870.75 570.08
  L 870.75 579.67
  A 0.33 0.33 0.0 0 1 870.42 580.00
  L 820.83 580.00
  A 0.33 0.33 0.0 0 0 820.50 580.33
  L 820.50 610.17
  A 0.33 0.33 0.0 0 0 820.83 610.50
  L 875.42 610.50
  A 0.33 0.33 0.0 0 1 875.75 610.83
  L 875.75 620.42
  A 0.33 0.33 0.0 0 1 875.42 620.75
  L 807.83 620.75
  A 0.33 0.33 0.0 0 1 807.50 620.42
  L 807.50 531.83
  A 0.33 0.33 0.0 0 1 807.83 531.50
  L 873.92 531.50
  A 0.33 0.33 0.0 0 1 874.25 531.83
  L 874.25 541.67
  A 0.33 0.33 0.0 0 1 873.92 542.00
  L 820.83 542.00
  A 0.33 0.33 0.0 0 0 820.50 542.33
  Z"
/>
<path fill="#d5b983" d="
  M 922.75 545.60
  L 922.75 620.45
  A 0.30 0.30 0.0 0 1 922.45 620.75
  L 910.05 620.75
  A 0.30 0.30 0.0 0 1 909.75 620.45
  L 909.75 531.80
  A 0.30 0.30 0.0 0 1 910.05 531.50
  L 927.33 531.50
  A 0.30 0.30 0.0 0 1 927.57 531.63
  L 981.46 606.74
  A 0.30 0.30 0.0 0 0 982.00 606.57
  L 982.00 531.80
  A 0.30 0.30 0.0 0 1 982.30 531.50
  L 994.70 531.50
  A 0.30 0.30 0.0 0 1 995.00 531.80
  L 995.00 620.45
  A 0.30 0.30 0.0 0 1 994.70 620.75
  L 977.48 620.75
  A 0.30 0.30 0.0 0 1 977.24 620.62
  L 923.29 545.43
  A 0.30 0.30 0.0 0 0 922.75 545.60
  Z"
/>
<path fill="#d5b983" d="
  M 1071.50 543.06
  L 1071.50 620.44
  A 0.31 0.31 0.0 0 1 1071.19 620.75
  L 1058.81 620.75
  A 0.31 0.31 0.0 0 1 1058.50 620.44
  L 1058.50 543.06
  A 0.31 0.31 0.0 0 0 1058.19 542.75
  L 1021.06 542.75
  A 0.31 0.31 0.0 0 1 1020.75 542.44
  L 1020.75 531.81
  A 0.31 0.31 0.0 0 1 1021.06 531.50
  L 1108.94 531.50
  A 0.31 0.31 0.0 0 1 1109.25 531.81
  L 1109.25 542.44
  A 0.31 0.31 0.0 0 1 1108.94 542.75
  L 1071.81 542.75
  A 0.31 0.31 0.0 0 0 1071.50 543.06
  Z"
/>
</svg>
