<?xml version="1.0" encoding="UTF-8" standalone="no"?>
<!DOCTYPE svg PUBLIC "-//W3C//DTD SVG 1.1//EN" "http://www.w3.org/Graphics/SVG/1.1/DTD/svg11.dtd">
<svg xmlns="http://www.w3.org/2000/svg" version="1.1" viewBox="0.00 0.00 329.00 334.00">
<path fill="#cca965" d="
  M 48.02 100.62
  Q 47.12 101.31 47.35 102.64
  Q 47.84 105.48 46.56 107.35
  A 1.31 1.26 59.5 0 0 46.34 108.27
  Q 46.75 111.21 46.02 113.72
  Q 45.35 116.02 45.37 118.41
  Q 45.44 127.63 45.37 136.23
  Q 45.36 138.20 46.00 140.20
  Q 46.69 142.36 46.36 144.69
  Q 46.27 145.27 46.62 145.75
  Q 47.62 147.13 47.38 148.88
  Q 47.32 149.33 47.52 149.74
  Q 48.50 151.71 48.37 153.84
  Q 48.33 154.31 48.62 154.69
  Q 49.41 155.74 49.37 157.05
  A 1.18 1.16 -65.5 0 0 49.66 157.85
  Q 50.45 158.72 50.34 159.90
  A 1.17 1.16 -63.2 0 0 50.63 160.79
  Q 51.45 161.72 51.34 162.94
  Q 51.30 163.41 51.61 163.77
  C 52.46 164.74 52.30 165.99 52.83 167.18
  Q 56.69 175.83 60.29 181.70
  Q 72.11 200.99 89.04 211.87
  Q 101.51 219.89 117.38 225.03
  Q 134.32 230.53 155.14 234.15
  Q 158.05 234.65 160.71 234.91
  C 161.78 235.01 162.41 235.78 163.46 235.66
  Q 166.37 235.33 168.91 235.93
  Q 171.78 236.62 174.38 236.61
  Q 185.34 236.58 197.01 236.61
  Q 197.54 236.61 197.97 236.29
  Q 198.34 236.01 198.80 236.02
  Q 199.57 236.04 199.53 236.81
  L 199.42 238.75
  Q 199.39 239.39 198.74 239.40
  L 197.06 239.41
  Q 196.64 239.41 196.25 239.58
  Q 194.21 240.46 191.96 240.39
  Q 190.05 240.33 188.04 240.86
  Q 186.03 241.40 183.98 241.40
  Q 171.59 241.42 158.83 241.37
  C 157.13 241.36 155.43 240.87 153.74 240.74
  Q 135.88 239.38 116.00 234.80
  Q 111.26 233.71 108.39 232.54
  C 107.88 232.33 107.52 232.40 106.99 232.43
  Q 106.73 232.44 106.48 232.36
  Q 103.50 231.43 100.64 230.23
  Q 98.76 229.45 96.87 228.84
  Q 94.95 228.22 93.18 227.33
  Q 87.18 224.34 81.42 221.45
  Q 80.33 220.90 79.47 220.13
  C 78.59 219.34 77.36 219.10 76.39 218.43
  Q 50.61 200.71 37.44 170.96
  Q 32.91 160.72 30.57 151.19
  Q 30.33 150.18 29.88 149.24
  Q 29.49 148.41 29.61 147.49
  Q 29.67 146.98 29.48 146.50
  Q 28.48 144.06 28.57 141.37
  Q 28.59 140.75 28.29 140.20
  C 27.12 138.10 27.98 136.19 27.28 133.97
  Q 26.20 130.54 26.65 126.07
  Q 26.79 124.69 26.43 123.44
  C 25.57 120.36 25.96 116.17 26.01 112.87
  C 26.02 112.48 26.13 112.17 26.36 111.86
  A 1.29 1.28 -28.0 0 0 26.62 111.03
  C 26.53 107.89 26.09 103.29 27.52 100.51
  A 1.52 1.47 -37.8 0 0 27.66 99.51
  Q 27.13 96.74 28.41 94.74
  Q 28.71 94.27 28.64 93.72
  Q 28.32 91.15 29.43 88.80
  Q 29.59 88.45 29.58 88.08
  C 29.52 85.79 30.72 83.92 29.18 81.79
  Q 27.78 79.87 26.66 77.85
  Q 26.20 77.04 25.48 74.75
  Q 24.98 73.19 24.08 71.71
  Q 23.37 70.55 23.63 69.26
  Q 23.74 68.68 23.38 68.21
  Q 22.22 66.67 22.69 64.76
  A 0.63 0.63 0.0 0 0 22.43 64.08
  Q 22.14 63.89 22.10 63.58
  Q 21.00 56.37 22.05 48.66
  C 22.12 48.21 22.34 47.95 22.52 47.55
  Q 22.69 47.19 22.62 46.78
  Q 22.34 45.14 23.34 43.86
  Q 23.64 43.48 23.59 42.99
  Q 23.49 41.98 23.84 40.99
  Q 31.03 20.28 50.87 10.77
  Q 51.36 10.53 51.93 10.55
  Q 52.57 10.58 52.86 10.01
  Q 53.12 9.50 53.66 9.65
  Q 54.28 9.82 54.78 9.41
  Q 56.11 8.33 57.81 8.62
  Q 58.35 8.71 58.80 8.39
  Q 60.50 7.21 62.71 7.62
  Q 63.21 7.71 63.67 7.48
  C 66.31 6.14 70.09 6.57 73.00 6.59
  Q 75.87 6.61 78.56 7.52
  A 2.21 2.18 -39.3 0 0 79.65 7.62
  Q 81.68 7.29 83.17 8.37
  A 1.50 1.50 0.0 0 0 84.13 8.65
  Q 85.30 8.57 86.19 9.36
  Q 86.47 9.61 86.85 9.59
  Q 87.74 9.57 88.53 9.95
  Q 90.43 10.89 92.48 11.59
  C 94.21 12.18 95.24 13.32 96.87 14.15
  Q 97.70 14.57 98.44 15.10
  Q 114.37 26.38 118.69 44.06
  Q 119.28 46.46 119.54 49.07
  Q 119.76 51.36 120.10 53.74
  C 120.54 56.78 119.86 59.75 119.55 62.75
  Q 119.26 65.53 118.74 67.69
  Q 118.08 70.41 117.20 72.72
  Q 107.67 97.76 80.79 104.22
  C 79.51 104.53 78.42 104.31 77.10 104.65
  Q 70.64 106.29 64.59 104.55
  C 63.52 104.25 62.66 104.54 61.60 104.35
  Q 58.32 103.76 55.40 102.47
  Q 54.96 102.28 54.51 102.40
  Q 53.32 102.73 52.69 101.78
  Q 52.17 100.99 51.25 101.34
  Q 51.17 101.37 51.13 101.30
  A 2.18 2.09 56.1 0 0 48.02 100.62
  Z"
/>
<path fill="#cca965" d="
  M 156.37 119.66
  Q 156.09 122.01 154.67 124.08
  Q 154.36 124.54 154.38 125.09
  Q 154.41 126.30 153.64 127.20
  Q 153.31 127.58 153.35 128.09
  Q 153.45 129.28 152.63 130.20
  Q 152.30 130.57 152.34 131.07
  Q 152.46 132.27 151.61 133.22
  Q 151.30 133.57 151.34 134.04
  Q 151.46 135.29 150.57 136.25
  Q 150.15 136.71 150.30 137.32
  Q 150.44 137.84 149.97 138.09
  Q 149.33 138.44 149.44 139.16
  Q 149.62 140.37 148.81 141.24
  Q 148.43 141.66 148.41 142.22
  Q 148.36 143.31 147.64 144.18
  Q 147.31 144.58 147.35 145.10
  Q 147.43 146.28 146.62 147.21
  Q 146.30 147.57 146.34 148.04
  Q 146.46 149.30 145.57 150.28
  Q 145.18 150.71 145.31 151.27
  Q 145.45 151.89 144.85 152.11
  Q 144.46 152.25 144.47 152.67
  Q 144.50 154.09 143.60 155.21
  Q 143.20 155.72 143.38 156.34
  Q 143.70 157.43 142.82 158.07
  A 0.86 0.85 -17.6 0 0 142.47 158.74
  Q 142.46 160.10 141.65 161.16
  A 1.46 1.46 0.0 0 0 141.35 162.13
  Q 141.42 163.28 140.64 164.17
  Q 140.30 164.56 140.34 165.08
  Q 140.44 166.28 139.61 167.22
  Q 139.30 167.57 139.34 168.03
  Q 139.46 169.30 138.56 170.28
  Q 138.16 170.71 138.30 171.28
  Q 138.47 171.90 137.86 172.10
  A 0.58 0.56 -11.0 0 0 137.47 172.66
  Q 137.50 174.09 136.62 175.21
  Q 136.32 175.60 136.35 176.09
  Q 136.44 177.29 135.60 178.22
  Q 135.28 178.58 135.35 179.05
  Q 135.48 180.05 134.85 180.85
  Q 134.53 181.26 134.44 181.77
  Q 134.04 184.05 132.66 186.07
  Q 132.35 186.52 132.37 187.06
  Q 132.41 188.27 131.63 189.21
  Q 131.31 189.60 131.35 190.10
  Q 131.43 191.27 130.63 192.19
  Q 130.30 192.57 130.34 193.08
  Q 130.44 194.27 129.62 195.21
  Q 129.31 195.57 129.34 196.05
  Q 129.45 197.29 128.58 198.27
  Q 128.18 198.71 128.31 199.29
  Q 128.44 199.89 127.87 200.10
  Q 127.46 200.25 127.47 200.68
  Q 127.49 202.08 126.65 203.17
  Q 126.31 203.62 126.34 204.18
  Q 126.40 205.22 125.76 206.01
  Q 125.38 206.48 125.38 207.08
  Q 125.37 207.42 125.26 207.73
  Q 123.60 212.54 121.86 217.52
  Q 121.68 218.05 121.15 218.22
  Q 118.93 218.93 117.00 217.77
  Q 116.64 217.55 116.22 217.47
  L 114.45 217.14
  A 0.53 0.53 0.0 0 1 114.04 216.47
  Q 114.12 216.17 114.34 215.93
  A 1.33 1.31 62.7 0 0 114.67 214.87
  Q 114.50 213.70 115.37 212.83
  A 0.87 0.85 64.0 0 0 115.61 212.10
  Q 115.45 210.91 116.25 210.04
  A 1.58 1.56 -27.1 0 0 116.64 208.86
  Q 116.54 207.71 117.37 206.85
  A 1.10 1.09 61.4 0 0 117.65 205.88
  Q 117.48 204.98 118.08 204.25
  Q 118.47 203.77 118.58 203.17
  Q 118.94 200.97 120.34 198.95
  Q 120.66 198.47 120.63 197.89
  Q 120.56 196.73 121.34 195.86
  A 1.26 1.23 63.5 0 0 121.66 194.86
  Q 121.52 193.75 122.32 192.90
  Q 122.75 192.44 122.66 191.82
  Q 122.52 190.74 123.28 189.97
  Q 123.88 189.38 123.62 188.58
  Q 123.41 187.91 124.07 187.78
  Q 124.71 187.64 124.64 186.98
  Q 124.50 185.74 125.37 184.83
  A 1.16 1.16 0.0 0 0 125.67 183.89
  Q 125.51 182.77 126.30 181.92
  Q 126.75 181.44 126.66 180.78
  Q 126.52 179.74 127.27 178.99
  A 1.34 1.33 64.1 0 0 127.65 177.88
  Q 127.51 176.71 128.33 175.93
  Q 128.89 175.40 128.65 174.67
  Q 128.40 173.94 129.12 173.76
  Q 129.69 173.61 129.63 173.03
  Q 129.50 171.75 130.39 170.80
  Q 130.73 170.43 130.66 169.93
  Q 130.49 168.72 131.38 167.86
  Q 131.72 167.53 131.64 167.06
  Q 131.45 165.93 132.23 165.07
  A 1.69 1.66 -26.5 0 0 132.65 163.84
  Q 132.57 162.65 133.44 161.78
  A 1.05 1.04 56.5 0 0 133.67 160.61
  Q 133.37 159.92 134.04 159.79
  Q 134.72 159.66 134.64 158.98
  Q 134.51 157.75 135.37 156.83
  Q 135.73 156.43 135.66 155.90
  Q 135.50 154.74 136.34 153.90
  Q 136.70 153.53 136.65 153.02
  Q 136.53 151.73 137.41 150.79
  Q 137.82 150.36 137.70 149.77
  L 137.60 149.27
  A 0.43 0.42 77.2 0 1 137.91 148.77
  Q 138.88 148.51 138.64 147.50
  Q 138.47 146.75 138.87 146.08
  Q 140.13 143.98 140.77 141.09
  Q 140.96 140.26 141.49 139.59
  Q 141.88 139.10 141.67 138.52
  Q 141.41 137.84 142.14 137.74
  Q 142.72 137.67 142.63 137.09
  Q 142.44 135.93 143.24 135.05
  A 1.59 1.58 63.8 0 0 143.64 133.85
  Q 143.55 132.72 144.35 131.86
  A 1.19 1.17 63.2 0 0 144.66 130.88
  Q 144.51 129.72 145.36 128.86
  A 1.14 1.11 61.9 0 0 145.65 127.85
  Q 145.58 127.52 145.63 127.18
  Q 145.72 126.66 146.08 126.28
  Q 146.88 125.44 146.63 124.40
  Q 146.47 123.75 147.13 123.76
  Q 147.30 123.77 147.43 123.66
  Q 147.65 123.48 147.61 123.20
  Q 147.43 121.94 148.30 120.93
  Q 148.73 120.45 148.66 119.80
  Q 148.53 118.71 149.35 117.88
  A 1.14 1.14 0.0 0 0 149.65 116.84
  Q 149.57 116.50 149.64 116.15
  Q 149.72 115.70 150.04 115.37
  C 151.07 114.29 150.28 113.07 151.41 111.80
  A 1.22 1.19 55.8 0 0 151.63 110.57
  Q 151.38 109.91 152.07 109.77
  Q 152.71 109.65 152.64 109.00
  Q 152.51 107.78 153.32 106.88
  Q 153.74 106.42 153.66 105.80
  Q 153.53 104.75 154.26 104.00
  A 1.41 1.39 64.4 0 0 154.65 102.87
  Q 154.53 101.74 155.30 100.94
  Q 155.70 100.52 155.64 99.94
  Q 155.53 98.73 156.38 97.81
  Q 156.73 97.43 156.72 96.92
  Q 156.72 96.74 156.65 96.58
  Q 156.37 95.92 157.08 95.78
  Q 157.78 95.64 157.62 94.92
  Q 157.45 94.20 157.86 93.59
  L 158.37 92.84
  Q 158.69 92.35 158.66 91.77
  Q 158.59 90.74 159.29 89.93
  Q 159.72 89.44 159.65 88.79
  Q 159.55 87.73 160.31 86.90
  A 1.33 1.33 0.0 0 0 160.67 85.83
  Q 160.54 84.73 161.32 83.92
  Q 161.68 83.53 161.70 83.01
  Q 161.71 82.77 161.63 82.55
  Q 161.43 81.95 162.04 81.77
  Q 162.89 81.51 162.62 80.66
  A 1.08 1.07 58.6 0 1 162.87 79.61
  Q 163.70 78.73 163.63 77.57
  Q 163.58 76.96 163.94 76.45
  L 164.41 75.80
  Q 164.72 75.36 164.66 74.83
  Q 164.54 73.71 165.35 72.90
  A 1.29 1.28 -33.9 0 0 165.63 71.50
  Q 165.35 70.86 166.04 70.79
  A 0.70 0.69 79.0 0 0 166.64 69.90
  Q 166.54 69.55 166.62 69.20
  Q 166.73 68.68 167.08 68.28
  Q 167.75 67.54 167.64 66.57
  A 1.59 1.58 60.1 0 1 167.94 65.45
  L 168.43 64.78
  Q 168.73 64.37 168.68 63.86
  Q 168.46 61.75 170.55 61.63
  Q 172.50 61.51 174.47 61.63
  Q 176.56 61.76 176.32 63.82
  Q 176.26 64.33 176.59 64.73
  Q 177.44 65.74 177.36 67.03
  A 0.74 0.74 0.0 0 0 177.94 67.81
  Q 178.62 67.96 178.34 68.60
  A 1.05 1.05 0.0 0 0 178.57 69.76
  Q 179.48 70.68 179.34 71.98
  Q 179.30 72.41 179.58 72.73
  Q 180.43 73.71 180.37 75.00
  Q 180.34 75.61 180.91 75.81
  Q 181.59 76.06 181.31 76.74
  Q 181.11 77.27 181.51 77.67
  Q 182.32 78.45 182.31 79.56
  Q 182.31 80.06 182.54 80.50
  Q 184.47 84.27 185.48 88.22
  Q 185.60 88.68 186.03 88.88
  Q 186.53 89.10 186.33 89.63
  Q 186.10 90.26 186.56 90.75
  Q 187.45 91.67 187.37 92.97
  A 1.48 1.48 0.0 0 0 187.63 93.90
  Q 189.05 95.95 189.44 98.17
  A 2.30 2.27 -69.3 0 0 189.88 99.16
  Q 190.37 99.76 190.32 100.52
  Q 190.29 101.05 190.54 101.52
  Q 192.47 105.27 193.48 109.18
  Q 193.60 109.66 194.03 109.89
  Q 194.52 110.15 194.33 110.68
  Q 194.11 111.27 194.54 111.72
  Q 195.48 112.69 195.34 114.02
  Q 195.30 114.41 195.56 114.70
  Q 196.43 115.70 196.38 117.02
  Q 196.36 117.61 196.91 117.81
  Q 197.58 118.06 197.31 118.74
  Q 197.11 119.27 197.51 119.67
  Q 198.32 120.45 198.32 121.55
  Q 198.32 122.04 198.54 122.48
  Q 200.21 125.76 201.26 129.38
  Q 201.50 130.25 202.00 130.95
  Q 202.53 131.73 202.44 132.73
  Q 202.37 133.37 202.92 133.69
  Q 203.45 134.00 203.27 134.65
  A 0.95 0.94 33.2 0 0 203.45 135.50
  Q 204.33 136.57 204.42 137.92
  Q 204.47 138.53 204.98 138.84
  Q 205.46 139.13 205.32 139.67
  Q 205.17 140.29 205.60 140.76
  Q 206.33 141.56 206.32 142.58
  Q 206.31 143.06 206.53 143.49
  Q 208.43 147.20 209.43 151.04
  Q 209.57 151.57 210.03 151.85
  Q 210.51 152.14 210.33 152.67
  Q 210.12 153.28 210.56 153.74
  Q 211.47 154.68 211.35 155.96
  Q 211.31 156.41 211.60 156.75
  Q 212.43 157.71 212.37 158.98
  Q 212.35 159.61 212.94 159.83
  Q 213.56 160.05 213.33 160.68
  Q 213.11 161.27 213.55 161.73
  Q 214.47 162.68 214.35 163.97
  Q 214.31 164.41 214.59 164.74
  Q 215.42 165.71 215.39 167.00
  Q 215.38 167.60 215.94 167.82
  Q 216.56 168.06 216.32 168.71
  Q 216.11 169.26 216.52 169.69
  Q 217.34 170.54 217.37 171.72
  Q 217.38 172.23 217.62 172.68
  Q 219.46 176.23 220.42 180.03
  Q 220.55 180.55 221.01 180.85
  Q 221.49 181.17 221.31 181.73
  A 0.97 0.96 32.9 0 0 221.52 182.69
  Q 222.42 183.65 222.38 185.01
  Q 222.36 185.52 222.65 185.93
  Q 224.16 188.13 224.42 190.26
  Q 224.48 190.73 224.81 191.08
  Q 225.39 191.71 225.33 192.54
  Q 225.30 193.05 225.53 193.50
  Q 227.48 197.25 228.47 201.21
  Q 228.59 201.67 229.01 201.88
  Q 229.53 202.14 229.32 202.69
  Q 229.11 203.27 229.54 203.71
  Q 230.47 204.67 230.36 206.00
  Q 230.32 206.40 230.58 206.72
  Q 231.40 207.71 231.41 209.01
  Q 231.41 209.59 231.94 209.81
  Q 232.56 210.07 232.32 210.72
  Q 232.12 211.27 232.52 211.69
  Q 233.35 212.54 233.36 213.73
  Q 233.37 214.26 233.62 214.72
  Q 234.86 217.02 235.57 219.32
  Q 236.39 221.99 237.44 224.41
  Q 238.52 226.89 239.36 229.74
  C 239.89 231.54 240.95 232.94 241.39 234.71
  Q 241.67 235.81 242.16 236.85
  Q 242.83 238.29 243.43 239.87
  Q 243.83 240.94 244.11 241.98
  Q 244.39 243.04 244.84 244.01
  Q 246.46 247.48 247.47 251.03
  Q 247.61 251.52 248.00 251.84
  Q 248.43 252.18 248.32 252.73
  A 1.14 1.14 0.0 0 0 248.54 253.67
  Q 249.13 254.42 249.33 255.44
  Q 249.75 257.54 251.09 259.56
  Q 251.50 260.17 251.36 260.90
  A 1.05 1.05 0.0 0 0 251.62 261.81
  Q 252.30 262.55 252.33 263.55
  Q 252.34 264.06 252.57 264.51
  Q 254.48 268.32 255.45 272.04
  Q 255.58 272.53 255.99 272.83
  Q 256.46 273.17 256.32 273.74
  Q 256.20 274.25 256.53 274.65
  Q 257.36 275.66 257.44 277.06
  A 2.29 2.28 27.1 0 0 257.81 278.20
  Q 259.12 280.14 259.44 282.21
  Q 259.51 282.72 259.83 283.12
  Q 260.47 283.93 260.38 284.98
  A 1.33 1.31 -59.9 0 0 260.61 285.87
  Q 262.07 287.96 262.43 290.22
  Q 262.52 290.73 262.85 291.12
  Q 263.38 291.74 263.33 292.53
  Q 263.29 293.05 263.53 293.51
  Q 265.48 297.26 266.47 301.25
  A 0.91 0.89 4.1 0 0 267.02 301.87
  Q 267.60 302.10 267.34 302.68
  Q 267.09 303.26 267.54 303.72
  Q 268.48 304.67 268.35 305.97
  Q 268.31 306.41 268.59 306.74
  Q 269.43 307.72 269.37 309.01
  Q 269.34 309.67 269.98 309.82
  Q 270.63 309.97 270.35 310.58
  A 1.02 1.01 -57.0 0 0 270.60 311.77
  Q 271.09 312.22 271.16 312.89
  Q 271.23 313.60 271.95 313.60
  L 302.67 313.60
  Q 304.00 313.60 304.00 314.92
  L 304.00 320.20
  Q 304.00 321.40 302.80 321.40
  L 193.74 321.40
  Q 191.58 321.40 191.58 319.24
  L 191.59 315.75
  Q 191.59 313.59 193.75 313.60
  Q 211.98 313.63 229.53 313.56
  Q 229.76 313.56 229.85 313.36
  Q 230.14 312.66 229.40 312.49
  Q 228.28 312.22 228.68 311.18
  A 0.79 0.79 0.0 0 0 228.49 310.31
  Q 227.44 309.30 227.69 307.97
  A 0.65 0.62 31.0 0 0 227.54 307.43
  Q 226.57 306.30 226.57 304.82
  Q 226.57 304.29 226.06 304.14
  Q 225.36 303.92 225.67 303.23
  Q 225.88 302.75 225.52 302.38
  Q 224.54 301.33 224.58 299.80
  Q 224.59 299.27 224.07 299.16
  Q 223.40 299.01 223.64 298.34
  Q 223.84 297.81 223.46 297.38
  Q 222.69 296.52 222.68 295.45
  Q 222.68 294.93 222.45 294.47
  Q 220.61 290.80 219.54 286.95
  Q 219.40 286.45 219.00 286.11
  Q 218.57 285.75 218.72 285.21
  A 0.91 0.88 31.3 0 0 218.50 284.36
  C 217.51 283.31 217.79 282.20 217.20 280.98
  Q 215.45 277.33 214.36 273.47
  Q 214.03 272.31 213.39 271.27
  Q 212.84 270.38 212.62 269.39
  Q 212.19 267.42 211.06 265.72
  Q 210.56 264.98 210.67 264.10
  Q 210.72 263.69 210.47 263.36
  Q 209.60 262.27 209.56 260.86
  Q 209.55 260.26 208.98 260.07
  Q 208.42 259.88 208.65 259.32
  Q 208.89 258.71 208.43 258.25
  Q 207.53 257.33 207.64 256.12
  A 1.37 1.35 28.8 0 0 207.35 255.15
  Q 206.51 254.08 206.56 252.71
  Q 206.57 252.27 206.13 252.18
  Q 205.36 252.02 205.67 251.28
  A 0.90 0.89 33.9 0 0 205.47 250.29
  Q 204.59 249.45 204.65 248.24
  Q 204.67 247.77 204.46 247.34
  Q 203.66 245.78 202.82 244.26
  Q 202.62 243.89 202.59 243.46
  Q 202.58 243.25 202.66 243.07
  Q 202.81 242.72 202.55 242.43
  Q 201.54 241.32 201.56 239.76
  Q 201.57 239.30 201.14 239.17
  Q 200.37 238.93 200.64 238.13
  Q 200.01 236.08 198.85 234.37
  Q 198.45 233.79 198.64 233.08
  Q 198.77 232.60 198.44 232.22
  Q 197.24 230.88 197.66 229.08
  Q 197.81 228.46 197.19 228.29
  Q 196.35 228.06 196.66 227.22
  A 0.98 0.98 0.0 0 0 196.39 226.16
  Q 195.46 225.31 195.68 224.09
  Q 195.75 223.68 195.49 223.36
  Q 194.58 222.28 194.57 220.84
  Q 194.57 220.29 194.04 220.12
  Q 193.37 219.92 193.66 219.25
  Q 193.89 218.73 193.49 218.33
  Q 192.59 217.43 192.66 216.19
  Q 192.69 215.58 192.32 215.10
  Q 191.52 214.06 191.55 212.72
  Q 191.56 212.26 191.12 212.17
  Q 190.37 212.01 190.67 211.29
  A 0.90 0.89 33.9 0 0 190.47 210.30
  Q 189.60 209.43 189.66 208.22
  Q 189.70 207.58 189.31 207.08
  Q 188.53 206.07 188.55 204.78
  Q 188.56 204.27 188.08 204.12
  Q 187.37 203.91 187.67 203.22
  Q 187.89 202.73 187.51 202.35
  Q 186.58 201.43 186.66 200.15
  A 1.57 1.51 28.2 0 0 186.33 199.12
  Q 185.52 198.07 185.55 196.74
  A 0.63 0.63 0.0 0 0 185.09 196.12
  Q 184.37 195.91 184.67 195.21
  Q 184.88 194.73 184.51 194.36
  Q 183.59 193.44 183.66 192.18
  A 1.63 1.57 -61.1 0 0 183.41 191.25
  L 182.83 190.33
  Q 182.51 189.82 182.60 189.24
  Q 182.73 188.38 181.97 188.08
  Q 181.43 187.86 181.65 187.32
  Q 181.75 187.10 181.69 186.83
  Q 181.59 186.41 181.31 186.09
  Q 180.58 185.27 180.66 184.18
  A 1.51 1.50 28.0 0 0 180.33 183.11
  Q 179.52 182.08 179.55 180.77
  Q 179.56 180.26 179.07 180.11
  Q 178.37 179.91 178.67 179.23
  Q 178.89 178.73 178.50 178.34
  Q 177.60 177.44 177.66 176.19
  Q 177.69 175.58 177.32 175.09
  Q 176.53 174.07 176.55 172.77
  Q 176.56 172.27 176.08 172.12
  Q 175.37 171.91 175.67 171.23
  Q 175.88 170.73 175.50 170.34
  Q 174.60 169.43 174.66 168.19
  Q 174.69 167.58 174.32 167.10
  Q 173.52 166.06 173.55 164.71
  Q 173.56 164.26 173.11 164.17
  Q 172.38 164.01 172.66 163.30
  Q 172.90 162.72 172.45 162.28
  Q 171.58 161.42 171.66 160.23
  Q 171.70 159.58 171.30 159.07
  Q 170.53 158.06 170.56 156.78
  Q 170.57 156.26 170.07 156.12
  Q 169.37 155.91 169.67 155.23
  Q 169.88 154.73 169.50 154.34
  Q 168.59 153.44 168.66 152.18
  Q 168.69 151.59 168.33 151.11
  Q 167.53 150.06 167.55 148.76
  Q 167.56 148.25 167.07 148.11
  Q 166.38 147.91 166.67 147.24
  Q 166.89 146.73 166.49 146.34
  Q 165.60 145.44 165.66 144.20
  Q 165.69 143.58 165.31 143.09
  Q 164.53 142.07 164.55 140.78
  Q 164.56 140.25 164.05 140.10
  Q 163.39 139.89 163.66 139.25
  Q 163.89 138.73 163.49 138.32
  Q 162.60 137.42 162.66 136.20
  Q 162.69 135.58 162.31 135.09
  Q 161.53 134.07 161.55 132.79
  A 0.71 0.71 0.0 0 0 161.03 132.08
  Q 160.40 131.90 160.65 131.29
  Q 160.89 130.71 160.45 130.27
  Q 159.51 129.33 159.65 128.10
  A 1.28 1.27 28.4 0 0 159.36 127.14
  Q 158.48 126.09 158.61 124.81
  Q 158.66 124.33 158.17 124.26
  Q 157.44 124.16 157.65 123.45
  Q 157.79 122.94 157.51 122.49
  Q 156.74 121.28 156.60 119.66
  Q 156.51 118.54 156.37 119.66
  Z"
/>
<path fill="#cca965" d="
  M 96.62 265.21
  L 96.62 264.32
  Q 96.61 263.68 97.09 263.25
  Q 97.82 262.60 97.61 261.69
  A 1.43 1.42 -27.8 0 1 98.04 260.33
  Q 98.77 259.66 98.65 258.72
  Q 98.57 258.02 98.97 257.45
  Q 99.76 256.32 100.05 254.98
  Q 100.45 253.19 101.48 251.63
  Q 101.72 251.27 101.67 250.84
  Q 101.52 249.72 102.36 248.89
  Q 102.75 248.50 102.68 247.95
  Q 102.51 246.73 103.40 245.82
  Q 103.72 245.49 103.67 245.04
  Q 103.54 243.73 104.45 242.70
  A 1.66 1.60 -21.8 0 0 104.84 241.83
  Q 105.01 240.34 105.79 238.91
  Q 106.00 238.53 106.43 238.52
  C 108.10 238.45 109.34 239.94 110.51 239.71
  Q 111.08 239.60 111.28 240.15
  Q 111.47 240.71 112.06 240.78
  A 1.21 1.17 -68.3 0 1 112.84 242.69
  Q 112.28 243.45 112.29 244.37
  Q 112.29 244.80 111.98 245.08
  Q 111.16 245.81 111.38 246.90
  Q 111.48 247.41 111.17 247.82
  Q 111.04 247.99 110.85 248.08
  A 0.65 0.64 -11.9 0 0 110.46 248.67
  Q 110.48 250.07 109.64 251.16
  A 1.56 1.52 -28.3 0 0 109.33 252.14
  Q 109.38 253.41 108.51 254.33
  Q 108.14 254.73 108.29 255.26
  Q 108.46 255.85 107.89 256.06
  Q 107.43 256.22 107.44 256.71
  Q 107.49 258.07 106.67 259.11
  Q 106.28 259.60 106.33 260.23
  Q 106.42 261.28 105.70 262.05
  Q 105.31 262.48 105.35 263.06
  Q 105.43 264.28 104.61 265.22
  Q 104.29 265.58 104.33 266.06
  Q 104.45 267.30 103.56 268.26
  Q 103.14 268.71 103.29 269.30
  Q 103.44 269.87 102.89 270.06
  Q 102.44 270.21 102.45 270.69
  Q 102.48 272.07 101.61 273.23
  Q 101.26 273.68 101.32 274.25
  Q 101.42 275.28 100.69 276.08
  Q 100.22 276.59 100.35 277.28
  Q 100.44 277.76 100.19 278.19
  C 99.42 279.51 98.34 281.27 98.26 282.84
  Q 98.22 283.53 97.72 284.06
  Q 97.26 284.55 97.31 285.22
  Q 97.39 286.29 96.65 287.15
  A 1.32 1.30 63.9 0 0 96.33 288.11
  Q 96.41 289.28 95.61 290.21
  Q 95.21 290.68 95.33 291.28
  Q 95.64 292.84 94.69 294.06
  Q 94.33 294.51 94.34 295.08
  Q 94.36 296.28 93.63 297.23
  Q 93.27 297.69 93.36 298.27
  Q 93.60 299.85 92.66 301.10
  A 1.40 1.34 -28.4 0 0 92.39 301.94
  C 92.40 303.47 92.05 304.96 92.88 306.37
  Q 93.65 307.68 94.20 309.02
  A 1.22 1.22 0.0 0 0 94.80 309.65
  Q 95.97 310.22 96.90 311.21
  A 1.41 1.39 -23.9 0 0 98.07 311.65
  Q 99.31 311.54 100.29 312.48
  Q 100.65 312.83 101.14 312.70
  Q 102.83 312.25 104.26 313.45
  Q 104.66 313.79 105.18 313.72
  C 108.56 313.31 111.73 314.07 115.05 314.03
  Q 121.69 313.94 128.69 313.55
  Q 130.00 313.48 130.00 314.79
  L 130.00 320.00
  Q 130.00 321.38 128.62 321.38
  L 49.03 321.37
  Q 48.68 321.37 48.68 321.03
  L 48.60 314.03
  A 0.40 0.40 0.0 0 1 49.00 313.63
  Q 56.55 313.60 64.97 313.65
  Q 66.39 313.66 67.72 313.10
  Q 69.34 312.42 70.97 312.67
  Q 71.49 312.76 71.86 312.39
  Q 72.66 311.62 73.74 311.62
  Q 74.25 311.62 74.66 311.32
  Q 79.98 307.47 82.55 301.74
  Q 83.47 299.70 86.87 291.62
  Q 87.37 290.43 87.57 289.56
  Q 87.91 288.17 88.21 287.53
  Q 89.25 285.33 89.77 283.07
  Q 89.95 282.26 90.52 281.65
  Q 90.88 281.27 90.69 280.78
  Q 90.43 280.08 91.09 279.79
  Q 91.59 279.56 91.60 279.00
  Q 91.60 277.72 92.44 276.71
  A 1.08 1.05 -29.7 0 0 92.68 275.87
  Q 92.53 274.73 93.36 273.88
  Q 93.74 273.48 93.67 272.94
  Q 93.52 271.73 94.39 270.84
  Q 94.75 270.47 94.68 269.97
  Q 94.49 268.66 95.48 267.76
  A 0.97 0.97 0.0 0 0 95.69 266.60
  Q 95.33 265.90 96.07 265.83
  Q 96.62 265.77 96.62 265.21
  Z"
/>
</svg>
