<?xml version="1.0" encoding="UTF-8" standalone="no"?>
<!DOCTYPE svg PUBLIC "-//W3C//DTD SVG 1.1//EN" "http://www.w3.org/Graphics/SVG/1.1/DTD/svg11.dtd">
<svg xmlns="http://www.w3.org/2000/svg" version="1.1" viewBox="0.00 0.00 848.00 781.00">
<g stroke-width="2.00" fill="none" stroke-linecap="butt">
<path stroke="#eadcc1" vector-effect="non-scaling-stroke" d="
  M 743.76 355.16
  C 723.42 334.52 705.89 296.15 735.90 273.92
  C 742.45 269.06 753.26 268.99 760.96 270.46
  C 781.74 274.44 791.99 293.25 793.17 312.88
  Q 793.33 315.54 793.74 312.91
  Q 796.56 294.65 797.80 275.63
  C 799.26 253.45 799.04 230.29 794.13 208.52
  C 786.78 175.98 761.42 147.35 726.65 144.58
  C 705.59 142.90 673.30 153.01 670.96 178.46
  C 670.13 187.50 675.97 193.89 684.71 194.28
  C 699.71 194.96 707.11 180.42 708.15 167.42
  Q 708.22 166.63 708.99 166.80
  L 709.42 166.89
  Q 709.84 166.98 709.86 167.41
  Q 710.41 175.80 707.28 183.29
  C 702.26 195.24 689.28 202.70 676.53 197.92
  Q 665.63 193.84 664.50 180.62
  Q 663.91 173.71 665.36 169.62
  Q 667.51 163.54 667.27 161.76
  C 663.67 134.97 656.74 109.00 642.11 86.05
  C 615.19 43.83 568.31 31.01 520.74 34.80
  Q 471.54 38.71 423.53 49.95
  A 1.46 1.45 -4.1 0 0 422.41 51.24
  Q 421.86 57.41 417.91 62.13
  A 0.84 0.81 43.7 0 0 417.95 63.22
  Q 432.53 78.66 449.87 90.99
  C 466.38 102.72 499.77 119.51 514.07 95.51
  C 518.09 88.78 518.53 80.55 514.20 74.03
  C 504.89 60.01 475.02 63.36 461.51 64.39
  Q 460.22 64.49 461.40 63.95
  Q 462.41 63.49 464.23 62.96
  C 479.87 58.39 500.72 53.83 515.33 62.68
  C 528.21 70.49 530.92 88.78 523.46 101.49
  C 511.34 122.16 486.77 122.42 467.41 113.36
  C 446.18 103.42 428.32 85.63 415.02 66.47
  A 1.16 1.15 -32.0 0 0 413.49 66.12
  C 400.49 73.56 385.61 65.27 384.36 50.48
  A 0.61 0.61 0.0 0 0 383.78 49.93
  C 368.50 49.19 352.15 50.21 337.42 54.62
  C 326.38 57.93 316.35 64.94 314.12 77.03
  C 313.26 81.69 312.63 89.85 315.30 93.95
  C 331.88 119.35 366.86 103.08 386.79 92.34
  Q 389.71 90.77 387.29 93.03
  C 371.57 107.79 344.90 123.03 322.67 113.72
  C 314.81 110.42 304.68 102.27 302.99 93.27
  C 297.42 63.57 316.45 45.74 345.33 43.08
  Q 347.89 42.84 345.34 42.48
  C 319.44 38.80 293.06 36.74 266.75 38.42
  C 233.68 40.53 202.53 51.53 185.42 82.17
  Q 172.29 105.69 179.09 131.97
  C 183.09 147.40 193.21 163.83 210.63 165.20
  C 230.43 166.76 230.37 143.90 218.40 134.60
  Q 210.91 128.77 200.19 128.44
  Q 199.37 128.41 199.56 127.62
  L 199.64 127.28
  A 1.34 1.34 0.0 0 1 200.90 126.26
  C 211.79 125.96 223.93 130.89 229.08 140.98
  C 235.97 154.48 229.13 171.30 212.74 172.07
  C 195.68 172.88 181.69 161.70 174.44 147.18
  A 2.29 2.28 73.3 0 0 172.13 145.93
  C 143.35 149.40 114.73 158.02 91.17 175.14
  C 55.89 200.78 42.93 244.44 45.78 286.26
  Q 49.37 338.77 61.35 389.52
  A 1.30 1.30 0.0 0 0 62.50 390.51
  Q 68.62 391.07 73.41 394.84
  A 1.20 1.19 41.9 0 0 74.99 394.76
  C 93.29 376.89 120.64 346.28 118.97 318.75
  C 117.39 292.56 80.44 285.05 76.03 315.75
  Q 73.52 333.17 75.76 349.44
  Q 76.59 355.46 74.60 349.72
  Q 71.53 340.87 69.87 329.40
  C 66.91 308.91 72.02 285.00 98.05 285.52
  Q 111.30 285.79 121.01 296.23
  Q 128.81 304.61 129.96 313.50
  C 134.49 348.29 103.29 380.20 77.44 398.25
  Q 77.02 398.54 77.22 399.02
  Q 77.88 400.57 78.56 402.13
  C 84.06 414.85 75.20 427.56 61.82 428.63
  A 0.59 0.58 -1.6 0 0 61.27 429.20
  C 60.53 454.58 61.33 504.82 101.43 499.12
  C 103.11 498.88 105.02 498.16 106.23 497.22
  C 131.14 477.81 113.47 445.39 103.08 424.79
  Q 103.02 424.67 103.15 424.62
  Q 103.28 424.58 103.41 424.60
  Q 103.56 424.61 103.71 424.80
  Q 106.46 428.16 109.24 431.49
  C 118.55 442.66 125.85 456.12 127.67 470.75
  C 129.45 485.12 123.12 499.54 110.88 507.37
  Q 107.60 509.48 103.21 510.19
  C 74.51 514.86 55.53 494.97 54.73 467.20
  Q 54.70 465.98 54.28 467.13
  Q 53.74 468.65 53.43 470.74
  Q 48.42 504.19 49.43 537.99
  C 50.54 575.22 61.02 611.44 96.98 629.33
  Q 121.06 641.30 147.44 632.61
  C 158.72 628.89 170.16 621.85 174.68 610.68
  C 178.28 601.74 178.05 590.22 167.21 587.04
  C 156.17 583.80 145.96 591.35 142.11 601.63
  Q 140.09 607.01 139.57 613.09
  A 0.49 0.48 7.9 0 1 138.99 613.52
  L 138.66 613.45
  Q 137.82 613.29 137.80 612.44
  C 137.40 600.18 142.48 588.13 153.75 583.27
  C 161.82 579.78 172.13 580.75 178.32 587.33
  C 184.89 594.30 184.42 606.26 181.09 614.84
  C 180.74 615.76 180.48 617.37 180.57 618.14
  C 186.60 672.45 210.77 723.64 267.03 740.34
  C 292.40 747.87 317.00 747.08 344.00 744.23
  Q 384.53 739.96 424.44 730.57
  A 0.99 0.98 86.3 0 0 425.19 729.71
  Q 425.76 723.17 430.04 718.24
  A 0.68 0.68 0.0 0 0 430.01 717.31
  C 412.41 699.41 380.80 670.97 353.74 672.97
  C 340.14 673.98 329.37 684.79 330.59 698.46
  C 332.59 720.93 369.60 717.80 384.55 716.27
  Q 388.93 715.82 384.77 717.26
  C 370.72 722.12 347.97 726.35 334.25 718.97
  C 317.39 709.91 316.07 687.25 328.11 673.59
  C 341.03 658.94 361.64 659.07 378.46 666.32
  C 400.51 675.83 419.31 695.00 433.21 714.66
  Q 433.53 715.11 434.00 714.81
  Q 440.32 710.84 446.01 711.75
  Q 461.49 714.24 463.46 730.13
  Q 463.52 730.67 464.06 730.68
  C 478.65 731.13 492.85 730.46 507.49 726.77
  C 525.13 722.32 535.43 711.89 534.21 692.74
  Q 533.96 688.81 532.75 687.01
  C 515.63 661.57 481.35 676.81 461.20 688.14
  Q 458.32 689.76 460.69 687.46
  C 474.65 673.91 498.27 660.51 518.69 664.88
  C 529.41 667.17 543.03 676.41 544.91 688.24
  C 547.21 702.72 544.03 716.78 532.73 726.32
  C 524.80 733.01 512.74 736.83 502.18 737.31
  Q 499.20 737.45 502.15 737.92
  C 532.30 742.78 564.38 744.75 594.98 740.61
  C 622.18 736.93 644.69 725.28 659.92 702.44
  Q 671.44 685.17 670.97 664.23
  C 670.51 644.13 659.34 616.06 635.75 615.23
  C 624.40 614.83 618.84 624.73 621.85 634.99
  C 625.12 646.17 636.66 651.87 647.56 652.16
  A 0.57 0.56 2.5 0 1 648.11 652.75
  L 648.10 653.08
  Q 648.06 653.99 647.15 654.05
  Q 634.88 654.94 625.64 647.86
  C 616.81 641.10 613.33 628.65 618.33 618.74
  C 625.52 604.47 646.90 607.07 657.45 614.79
  Q 667.83 622.39 673.59 634.01
  Q 674.02 634.88 674.99 634.76
  C 731.39 627.53 783.62 602.39 797.94 542.02
  C 801.71 526.12 802.91 507.97 801.94 493.86
  Q 798.33 441.66 786.35 391.00
  A 1.24 1.22 -3.9 0 0 785.26 390.06
  Q 778.73 389.44 773.69 385.32
  Q 773.41 385.08 773.14 385.34
  C 754.66 403.45 726.98 434.25 728.82 462.00
  C 729.43 471.21 734.96 479.38 743.39 483.08
  C 751.85 486.78 761.99 484.99 767.25 477.04
  Q 770.09 472.74 771.67 464.14
  C 773.86 452.26 772.63 440.58 772.19 428.61
  Q 772.19 428.50 772.28 428.45
  Q 772.45 428.36 772.51 428.35
  Q 772.55 428.34 772.56 428.37
  Q 774.40 435.10 776.12 441.83
  C 781.10 461.22 780.97 491.99 753.99 495.01
  C 734.03 497.25 717.10 480.06 717.24 460.50
  C 717.49 427.91 746.04 399.04 770.25 382.36
  A 0.84 0.84 0.0 0 0 770.49 381.23
  C 767.10 375.73 766.57 368.93 769.26 363.05
  C 772.49 356.03 778.33 353.03 785.96 351.82
  A 0.68 0.68 0.0 0 0 786.53 351.16
  C 786.87 326.59 786.62 276.28 747.45 281.35
  Q 743.89 281.81 741.03 283.87
  C 717.20 301.05 733.76 335.46 744.27 354.78
  Q 745.35 356.78 743.76 355.16"
/>
<path stroke="#8596a7" vector-effect="non-scaling-stroke" d="
  M 307.36 309.40
  C 310.72 310.86 314.17 312.36 317.53 313.18
  Q 340.45 318.75 358.80 305.34
  C 383.43 287.33 385.52 250.31 362.72 229.78
  C 339.48 208.86 302.18 214.70 287.08 242.33
  C 278.11 258.75 279.35 277.09 289.44 293.29
  A 1.31 1.28 35.6 0 1 289.61 294.25
  Q 286.70 308.74 286.23 313.49
  C 282.11 355.43 297.68 400.33 332.46 425.69
  C 345.28 435.05 360.95 441.19 376.51 444.67
  C 402.71 450.55 431.36 453.83 457.92 448.77
  Q 458.61 448.64 458.44 447.96
  L 458.25 447.20
  Q 458.08 446.53 457.39 446.60
  Q 437.24 448.48 416.98 445.15
  C 398.69 442.15 380.11 437.80 363.04 430.44
  C 323.78 413.49 301.91 373.73 303.86 331.75
  Q 304.34 321.44 306.73 309.73
  Q 306.85 309.17 307.36 309.40"
/>
<path stroke="#8596a7" vector-effect="non-scaling-stroke" d="
  M 415.66 329.17
  Q 436.05 383.09 456.25 437.37
  Q 456.76 438.74 457.74 442.07
  C 458.77 445.60 460.98 450.24 461.79 452.35
  Q 475.48 488.13 489.12 523.70
  A 0.41 0.41 0.0 0 1 488.74 524.25
  L 451.50 524.25
  Q 451.25 524.25 451.25 524.50
  L 451.27 530.46
  Q 451.27 530.75 451.56 530.75
  L 562.24 530.76
  A 0.26 0.25 0.0 0 0 562.50 530.51
  L 562.50 524.50
  Q 562.50 524.25 562.25 524.25
  L 530.73 524.25
  Q 530.16 524.25 529.96 523.72
  L 434.43 272.48
  Q 434.24 272.00 433.73 272.00
  L 429.24 272.01
  Q 428.71 272.01 428.53 272.51
  L 373.53 425.74
  A 0.87 0.87 0.0 0 0 374.14 426.88
  L 379.24 428.14
  Q 380.03 428.33 380.30 427.56
  L 415.20 329.18
  Q 415.43 328.55 415.66 329.17"
/>
<path stroke="#8596a7" vector-effect="non-scaling-stroke" d="
  M 357.02 492.25
  C 361.91 478.83 366.92 465.42 371.64 451.94
  Q 371.87 451.29 371.24 451.03
  L 365.99 448.82
  A 0.67 0.67 0.0 0 0 365.10 449.21
  Q 355.32 476.50 345.42 503.96
  Q 343.82 508.42 340.67 514.22
  Q 335.81 523.20 325.78 523.88
  Q 316.84 524.49 308.35 524.21
  Q 307.99 524.20 308.00 524.55
  L 308.01 530.51
  Q 308.01 530.75 308.25 530.75
  L 388.25 530.75
  A 0.25 0.25 0.0 0 0 388.50 530.50
  L 388.50 524.51
  A 0.27 0.26 1.1 0 0 388.24 524.25
  C 379.34 524.01 350.83 527.77 350.98 513.53
  Q 351.00 511.98 352.93 505.01
  Q 354.72 498.56 357.02 492.25"
/>
</g>
<path fill="#d5b983" d="
  M 810.78 298.45
  Q 810.50 298.50 810.23 298.56
  A 0.19 0.18 66.9 0 0 810.12 298.84
  Q 811.16 300.54 810.42 303.25
  Q 805.50 321.23 798.68 338.58
  Q 796.68 343.67 794.43 348.66
  C 793.79 350.09 792.67 351.07 792.98 353.10
  Q 793.06 353.59 793.50 353.82
  Q 802.88 358.51 804.91 368.61
  C 805.89 373.47 803.41 380.22 799.76 383.54
  C 794.35 388.47 797.73 390.24 799.78 395.30
  C 810.88 422.61 819.13 451.62 819.90 481.26
  Q 820.40 500.33 817.78 519.25
  C 812.41 558.11 792.34 596.41 757.07 616.09
  C 742.83 624.03 727.30 629.18 711.22 632.86
  Q 705.53 634.16 692.50 636.01
  C 687.35 636.74 682.40 637.45 678.04 636.64
  Q 676.79 636.41 675.52 637.27
  A 1.45 1.45 0.0 0 0 675.06 639.13
  C 680.47 649.56 683.04 663.21 681.93 674.91
  C 679.52 700.33 666.53 721.13 646.74 737.04
  C 633.24 747.89 614.30 756.02 597.06 759.06
  Q 596.15 759.23 587.47 760.54
  Q 569.34 763.29 551.00 761.38
  Q 504.79 756.58 462.64 736.94
  A 1.09 1.08 -65.0 0 0 461.19 737.47
  C 455.79 749.24 445.29 752.16 434.01 746.47
  C 431.91 745.41 430.98 743.54 429.47 741.79
  A 2.40 2.39 -32.2 0 0 426.67 741.16
  C 378.02 762.79 323.39 772.11 270.97 756.36
  C 235.10 745.58 206.19 721.17 191.96 686.27
  C 184.82 668.75 180.09 649.44 179.06 630.23
  C 178.90 627.35 177.85 624.64 177.99 621.78
  A 0.55 0.55 0.0 0 0 176.99 621.45
  Q 170.44 631.25 159.69 637.18
  C 156.28 639.06 150.92 641.77 146.58 643.17
  Q 115.21 653.31 85.66 637.98
  C 53.28 621.17 35.15 586.47 31.12 551.34
  C 27.33 518.28 33.84 485.21 44.55 453.39
  Q 44.99 452.10 46.58 448.19
  C 47.53 445.85 48.18 443.35 49.14 441.17
  Q 51.99 434.68 54.89 428.32
  A 1.16 1.14 -62.7 0 0 54.43 426.85
  C 40.43 418.66 38.89 405.17 50.54 393.93
  A 1.70 1.70 0.0 0 0 50.90 391.99
  C 44.88 379.02 39.92 364.72 36.25 350.91
  C 34.62 344.79 32.68 338.63 31.60 332.61
  Q 29.86 322.84 28.75 312.98
  C 27.75 304.03 27.95 294.70 28.05 285.50
  C 28.35 256.11 35.44 227.13 51.26 202.26
  Q 63.28 183.36 79.12 172.12
  Q 96.25 159.96 112.49 154.31
  C 121.10 151.31 134.32 147.74 145.05 146.15
  Q 153.13 144.95 161.25 144.03
  Q 164.93 143.61 168.50 144.47
  Q 168.79 144.55 168.78 144.24
  Q 168.78 144.11 168.78 143.97
  A 0.41 0.39 -20.3 0 1 168.95 143.63
  Q 170.14 142.81 170.59 143.15
  Q 173.28 145.14 172.57 141.87
  C 172.25 140.41 171.02 138.73 170.50 137.36
  C 158.66 106.08 169.91 72.59 193.24 50.12
  C 214.10 30.03 243.93 20.10 272.48 19.03
  C 309.02 17.67 345.84 26.37 379.01 40.95
  C 381.15 41.89 383.42 42.32 385.66 43.07
  A 0.78 0.78 0.0 0 0 386.61 42.67
  Q 388.36 39.04 391.11 36.07
  Q 392.93 34.11 395.77 33.18
  C 399.12 32.09 402.69 30.85 406.15 31.48
  C 412.03 32.55 414.97 35.31 418.90 39.47
  A 1.25 1.25 0.0 0 0 420.29 39.77
  C 426.39 37.29 432.62 34.38 438.59 32.23
  Q 454.36 26.56 460.99 25.05
  C 471.39 22.68 482.51 19.73 492.24 18.30
  Q 538.14 11.55 581.00 25.53
  Q 596.26 30.51 611.99 40.55
  C 632.74 53.80 649.15 75.85 657.66 98.71
  Q 663.98 115.66 665.27 124.49
  C 666.90 135.62 669.35 146.82 668.96 158.02
  A 0.96 0.96 0.0 0 0 670.38 158.89
  Q 670.74 158.69 671.32 157.83
  C 676.58 150.02 686.67 143.53 695.04 139.61
  Q 695.50 139.39 696.01 139.40
  C 696.91 139.43 697.30 138.77 698.01 138.50
  C 716.06 131.42 734.76 131.63 752.76 138.54
  C 797.50 155.71 818.36 203.76 817.81 249.01
  C 817.61 266.19 815.01 282.41 811.44 299.15
  A 0.08 0.07 -76.7 0 1 811.36 299.21
  Q 810.81 299.11 810.87 298.52
  Q 810.87 298.43 810.78 298.45
  Z
  M 743.76 355.16
  C 723.42 334.52 705.89 296.15 735.90 273.92
  C 742.45 269.06 753.26 268.99 760.96 270.46
  C 781.74 274.44 791.99 293.25 793.17 312.88
  Q 793.33 315.54 793.74 312.91
  Q 796.56 294.65 797.80 275.63
  C 799.26 253.45 799.04 230.29 794.13 208.52
  C 786.78 175.98 761.42 147.35 726.65 144.58
  C 705.59 142.90 673.30 153.01 670.96 178.46
  C 670.13 187.50 675.97 193.89 684.71 194.28
  C 699.71 194.96 707.11 180.42 708.15 167.42
  Q 708.22 166.63 708.99 166.80
  L 709.42 166.89
  Q 709.84 166.98 709.86 167.41
  Q 710.41 175.80 707.28 183.29
  C 702.26 195.24 689.28 202.70 676.53 197.92
  Q 665.63 193.84 664.50 180.62
  Q 663.91 173.71 665.36 169.62
  Q 667.51 163.54 667.27 161.76
  C 663.67 134.97 656.74 109.00 642.11 86.05
  C 615.19 43.83 568.31 31.01 520.74 34.80
  Q 471.54 38.71 423.53 49.95
  A 1.46 1.45 -4.1 0 0 422.41 51.24
  Q 421.86 57.41 417.91 62.13
  A 0.84 0.81 43.7 0 0 417.95 63.22
  Q 432.53 78.66 449.87 90.99
  C 466.38 102.72 499.77 119.51 514.07 95.51
  C 518.09 88.78 518.53 80.55 514.20 74.03
  C 504.89 60.01 475.02 63.36 461.51 64.39
  Q 460.22 64.49 461.40 63.95
  Q 462.41 63.49 464.23 62.96
  C 479.87 58.39 500.72 53.83 515.33 62.68
  C 528.21 70.49 530.92 88.78 523.46 101.49
  C 511.34 122.16 486.77 122.42 467.41 113.36
  C 446.18 103.42 428.32 85.63 415.02 66.47
  A 1.16 1.15 -32.0 0 0 413.49 66.12
  C 400.49 73.56 385.61 65.27 384.36 50.48
  A 0.61 0.61 0.0 0 0 383.78 49.93
  C 368.50 49.19 352.15 50.21 337.42 54.62
  C 326.38 57.93 316.35 64.94 314.12 77.03
  C 313.26 81.69 312.63 89.85 315.30 93.95
  C 331.88 119.35 366.86 103.08 386.79 92.34
  Q 389.71 90.77 387.29 93.03
  C 371.57 107.79 344.90 123.03 322.67 113.72
  C 314.81 110.42 304.68 102.27 302.99 93.27
  C 297.42 63.57 316.45 45.74 345.33 43.08
  Q 347.89 42.84 345.34 42.48
  C 319.44 38.80 293.06 36.74 266.75 38.42
  C 233.68 40.53 202.53 51.53 185.42 82.17
  Q 172.29 105.69 179.09 131.97
  C 183.09 147.40 193.21 163.83 210.63 165.20
  C 230.43 166.76 230.37 143.90 218.40 134.60
  Q 210.91 128.77 200.19 128.44
  Q 199.37 128.41 199.56 127.62
  L 199.64 127.28
  A 1.34 1.34 0.0 0 1 200.90 126.26
  C 211.79 125.96 223.93 130.89 229.08 140.98
  C 235.97 154.48 229.13 171.30 212.74 172.07
  C 195.68 172.88 181.69 161.70 174.44 147.18
  A 2.29 2.28 73.3 0 0 172.13 145.93
  C 143.35 149.40 114.73 158.02 91.17 175.14
  C 55.89 200.78 42.93 244.44 45.78 286.26
  Q 49.37 338.77 61.35 389.52
  A 1.30 1.30 0.0 0 0 62.50 390.51
  Q 68.62 391.07 73.41 394.84
  A 1.20 1.19 41.9 0 0 74.99 394.76
  C 93.29 376.89 120.64 346.28 118.97 318.75
  C 117.39 292.56 80.44 285.05 76.03 315.75
  Q 73.52 333.17 75.76 349.44
  Q 76.59 355.46 74.60 349.72
  Q 71.53 340.87 69.87 329.40
  C 66.91 308.91 72.02 285.00 98.05 285.52
  Q 111.30 285.79 121.01 296.23
  Q 128.81 304.61 129.96 313.50
  C 134.49 348.29 103.29 380.20 77.44 398.25
  Q 77.02 398.54 77.22 399.02
  Q 77.88 400.57 78.56 402.13
  C 84.06 414.85 75.20 427.56 61.82 428.63
  A 0.59 0.58 -1.6 0 0 61.27 429.20
  C 60.53 454.58 61.33 504.82 101.43 499.12
  C 103.11 498.88 105.02 498.16 106.23 497.22
  C 131.14 477.81 113.47 445.39 103.08 424.79
  Q 103.02 424.67 103.15 424.62
  Q 103.28 424.58 103.41 424.60
  Q 103.56 424.61 103.71 424.80
  Q 106.46 428.16 109.24 431.49
  C 118.55 442.66 125.85 456.12 127.67 470.75
  C 129.45 485.12 123.12 499.54 110.88 507.37
  Q 107.60 509.48 103.21 510.19
  C 74.51 514.86 55.53 494.97 54.73 467.20
  Q 54.70 465.98 54.28 467.13
  Q 53.74 468.65 53.43 470.74
  Q 48.42 504.19 49.43 537.99
  C 50.54 575.22 61.02 611.44 96.98 629.33
  Q 121.06 641.30 147.44 632.61
  C 158.72 628.89 170.16 621.85 174.68 610.68
  C 178.28 601.74 178.05 590.22 167.21 587.04
  C 156.17 583.80 145.96 591.35 142.11 601.63
  Q 140.09 607.01 139.57 613.09
  A 0.49 0.48 7.9 0 1 138.99 613.52
  L 138.66 613.45
  Q 137.82 613.29 137.80 612.44
  C 137.40 600.18 142.48 588.13 153.75 583.27
  C 161.82 579.78 172.13 580.75 178.32 587.33
  C 184.89 594.30 184.42 606.26 181.09 614.84
  C 180.74 615.76 180.48 617.37 180.57 618.14
  C 186.60 672.45 210.77 723.64 267.03 740.34
  C 292.40 747.87 317.00 747.08 344.00 744.23
  Q 384.53 739.96 424.44 730.57
  A 0.99 0.98 86.3 0 0 425.19 729.71
  Q 425.76 723.17 430.04 718.24
  A 0.68 0.68 0.0 0 0 430.01 717.31
  C 412.41 699.41 380.80 670.97 353.74 672.97
  C 340.14 673.98 329.37 684.79 330.59 698.46
  C 332.59 720.93 369.60 717.80 384.55 716.27
  Q 388.93 715.82 384.77 717.26
  C 370.72 722.12 347.97 726.35 334.25 718.97
  C 317.39 709.91 316.07 687.25 328.11 673.59
  C 341.03 658.94 361.64 659.07 378.46 666.32
  C 400.51 675.83 419.31 695.00 433.21 714.66
  Q 433.53 715.11 434.00 714.81
  Q 440.32 710.84 446.01 711.75
  Q 461.49 714.24 463.46 730.13
  Q 463.52 730.67 464.06 730.68
  C 478.65 731.13 492.85 730.46 507.49 726.77
  C 525.13 722.32 535.43 711.89 534.21 692.74
  Q 533.96 688.81 532.75 687.01
  C 515.63 661.57 481.35 676.81 461.20 688.14
  Q 458.32 689.76 460.69 687.46
  C 474.65 673.91 498.27 660.51 518.69 664.88
  C 529.41 667.17 543.03 676.41 544.91 688.24
  C 547.21 702.72 544.03 716.78 532.73 726.32
  C 524.80 733.01 512.74 736.83 502.18 737.31
  Q 499.20 737.45 502.15 737.92
  C 532.30 742.78 564.38 744.75 594.98 740.61
  C 622.18 736.93 644.69 725.28 659.92 702.44
  Q 671.44 685.17 670.97 664.23
  C 670.51 644.13 659.34 616.06 635.75 615.23
  C 624.40 614.83 618.84 624.73 621.85 634.99
  C 625.12 646.17 636.66 651.87 647.56 652.16
  A 0.57 0.56 2.5 0 1 648.11 652.75
  L 648.10 653.08
  Q 648.06 653.99 647.15 654.05
  Q 634.88 654.94 625.64 647.86
  C 616.81 641.10 613.33 628.65 618.33 618.74
  C 625.52 604.47 646.90 607.07 657.45 614.79
  Q 667.83 622.39 673.59 634.01
  Q 674.02 634.88 674.99 634.76
  C 731.39 627.53 783.62 602.39 797.94 542.02
  C 801.71 526.12 802.91 507.97 801.94 493.86
  Q 798.33 441.66 786.35 391.00
  A 1.24 1.22 -3.9 0 0 785.26 390.06
  Q 778.73 389.44 773.69 385.32
  Q 773.41 385.08 773.14 385.34
  C 754.66 403.45 726.98 434.25 728.82 462.00
  C 729.43 471.21 734.96 479.38 743.39 483.08
  C 751.85 486.78 761.99 484.99 767.25 477.04
  Q 770.09 472.74 771.67 464.14
  C 773.86 452.26 772.63 440.58 772.19 428.61
  Q 772.19 428.50 772.28 428.45
  Q 772.45 428.36 772.51 428.35
  Q 772.55 428.34 772.56 428.37
  Q 774.40 435.10 776.12 441.83
  C 781.10 461.22 780.97 491.99 753.99 495.01
  C 734.03 497.25 717.10 480.06 717.24 460.50
  C 717.49 427.91 746.04 399.04 770.25 382.36
  A 0.84 0.84 0.0 0 0 770.49 381.23
  C 767.10 375.73 766.57 368.93 769.26 363.05
  C 772.49 356.03 778.33 353.03 785.96 351.82
  A 0.68 0.68 0.0 0 0 786.53 351.16
  C 786.87 326.59 786.62 276.28 747.45 281.35
  Q 743.89 281.81 741.03 283.87
  C 717.20 301.05 733.76 335.46 744.27 354.78
  Q 745.35 356.78 743.76 355.16
  Z"
/>
<path fill="#ffffff" d="
  M 743.76 355.16
  Q 745.35 356.78 744.27 354.78
  C 733.76 335.46 717.20 301.05 741.03 283.87
  Q 743.89 281.81 747.45 281.35
  C 786.62 276.28 786.87 326.59 786.53 351.16
  A 0.68 0.68 0.0 0 1 785.96 351.82
  C 778.33 353.03 772.49 356.03 769.26 363.05
  C 766.57 368.93 767.10 375.73 770.49 381.23
  A 0.84 0.84 0.0 0 1 770.25 382.36
  C 746.04 399.04 717.49 427.91 717.24 460.50
  C 717.10 480.06 734.03 497.25 753.99 495.01
  C 780.97 491.99 781.10 461.22 776.12 441.83
  Q 774.40 435.10 772.56 428.37
  Q 772.55 428.34 772.51 428.35
  Q 772.45 428.36 772.28 428.45
  Q 772.19 428.50 772.19 428.61
  C 772.63 440.58 773.86 452.26 771.67 464.14
  Q 770.09 472.74 767.25 477.04
  C 761.99 484.99 751.85 486.78 743.39 483.08
  C 734.96 479.38 729.43 471.21 728.82 462.00
  C 726.98 434.25 754.66 403.45 773.14 385.34
  Q 773.41 385.08 773.69 385.32
  Q 778.73 389.44 785.26 390.06
  A 1.24 1.22 -3.9 0 1 786.35 391.00
  Q 798.33 441.66 801.94 493.86
  C 802.91 507.97 801.71 526.12 797.94 542.02
  C 783.62 602.39 731.39 627.53 674.99 634.76
  Q 674.02 634.88 673.59 634.01
  Q 667.83 622.39 657.45 614.79
  C 646.90 607.07 625.52 604.47 618.33 618.74
  C 613.33 628.65 616.81 641.10 625.64 647.86
  Q 634.88 654.94 647.15 654.05
  Q 648.06 653.99 648.10 653.08
  L 648.11 652.75
  A 0.57 0.56 2.5 0 0 647.56 652.16
  C 636.66 651.87 625.12 646.17 621.85 634.99
  C 618.84 624.73 624.40 614.83 635.75 615.23
  C 659.34 616.06 670.51 644.13 670.97 664.23
  Q 671.44 685.17 659.92 702.44
  C 644.69 725.28 622.18 736.93 594.98 740.61
  C 564.38 744.75 532.30 742.78 502.15 737.92
  Q 499.20 737.45 502.18 737.31
  C 512.74 736.83 524.80 733.01 532.73 726.32
  C 544.03 716.78 547.21 702.72 544.91 688.24
  C 543.03 676.41 529.41 667.17 518.69 664.88
  C 498.27 660.51 474.65 673.91 460.69 687.46
  Q 458.32 689.76 461.20 688.14
  C 481.35 676.81 515.63 661.57 532.75 687.01
  Q 533.96 688.81 534.21 692.74
  C 535.43 711.89 525.13 722.32 507.49 726.77
  C 492.85 730.46 478.65 731.13 464.06 730.68
  Q 463.52 730.67 463.46 730.13
  Q 461.49 714.24 446.01 711.75
  Q 440.32 710.84 434.00 714.81
  Q 433.53 715.11 433.21 714.66
  C 419.31 695.00 400.51 675.83 378.46 666.32
  C 361.64 659.07 341.03 658.94 328.11 673.59
  C 316.07 687.25 317.39 709.91 334.25 718.97
  C 347.97 726.35 370.72 722.12 384.77 717.26
  Q 388.93 715.82 384.55 716.27
  C 369.60 717.80 332.59 720.93 330.59 698.46
  C 329.37 684.79 340.14 673.98 353.74 672.97
  C 380.80 670.97 412.41 699.41 430.01 717.31
  A 0.68 0.68 0.0 0 1 430.04 718.24
  Q 425.76 723.17 425.19 729.71
  A 0.99 0.98 86.3 0 1 424.44 730.57
  Q 384.53 739.96 344.00 744.23
  C 317.00 747.08 292.40 747.87 267.03 740.34
  C 210.77 723.64 186.60 672.45 180.57 618.14
  C 180.48 617.37 180.74 615.76 181.09 614.84
  C 184.42 606.26 184.89 594.30 178.32 587.33
  C 172.13 580.75 161.82 579.78 153.75 583.27
  C 142.48 588.13 137.40 600.18 137.80 612.44
  Q 137.82 613.29 138.66 613.45
  L 138.99 613.52
  A 0.49 0.48 7.9 0 0 139.57 613.09
  Q 140.09 607.01 142.11 601.63
  C 145.96 591.35 156.17 583.80 167.21 587.04
  C 178.05 590.22 178.28 601.74 174.68 610.68
  C 170.16 621.85 158.72 628.89 147.44 632.61
  Q 121.06 641.30 96.98 629.33
  C 61.02 611.44 50.54 575.22 49.43 537.99
  Q 48.42 504.19 53.43 470.74
  Q 53.74 468.65 54.28 467.13
  Q 54.70 465.98 54.73 467.20
  C 55.53 494.97 74.51 514.86 103.21 510.19
  Q 107.60 509.48 110.88 507.37
  C 123.12 499.54 129.45 485.12 127.67 470.75
  C 125.85 456.12 118.55 442.66 109.24 431.49
  Q 106.46 428.16 103.71 424.80
  Q 103.56 424.61 103.41 424.60
  Q 103.28 424.58 103.15 424.62
  Q 103.02 424.67 103.08 424.79
  C 113.47 445.39 131.14 477.81 106.23 497.22
  C 105.02 498.16 103.11 498.88 101.43 499.12
  C 61.33 504.82 60.53 454.58 61.27 429.20
  A 0.59 0.58 -1.6 0 1 61.82 428.63
  C 75.20 427.56 84.06 414.85 78.56 402.13
  Q 77.88 400.57 77.22 399.02
  Q 77.02 398.54 77.44 398.25
  C 103.29 380.20 134.49 348.29 129.96 313.50
  Q 128.81 304.61 121.01 296.23
  Q 111.30 285.79 98.05 285.52
  C 72.02 285.00 66.91 308.91 69.87 329.40
  Q 71.53 340.87 74.60 349.72
  Q 76.59 355.46 75.76 349.44
  Q 73.52 333.17 76.03 315.75
  C 80.44 285.05 117.39 292.56 118.97 318.75
  C 120.64 346.28 93.29 376.89 74.99 394.76
  A 1.20 1.19 41.9 0 1 73.41 394.84
  Q 68.62 391.07 62.50 390.51
  A 1.30 1.30 0.0 0 1 61.35 389.52
  Q 49.37 338.77 45.78 286.26
  C 42.93 244.44 55.89 200.78 91.17 175.14
  C 114.73 158.02 143.35 149.40 172.13 145.93
  A 2.29 2.28 73.3 0 1 174.44 147.18
  C 181.69 161.70 195.68 172.88 212.74 172.07
  C 229.13 171.30 235.97 154.48 229.08 140.98
  C 223.93 130.89 211.79 125.96 200.90 126.26
  A 1.34 1.34 0.0 0 0 199.64 127.28
  L 199.56 127.62
  Q 199.37 128.41 200.19 128.44
  Q 210.91 128.77 218.40 134.60
  C 230.37 143.90 230.43 166.76 210.63 165.20
  C 193.21 163.83 183.09 147.40 179.09 131.97
  Q 172.29 105.69 185.42 82.17
  C 202.53 51.53 233.68 40.53 266.75 38.42
  C 293.06 36.74 319.44 38.80 345.34 42.48
  Q 347.89 42.84 345.33 43.08
  C 316.45 45.74 297.42 63.57 302.99 93.27
  C 304.68 102.27 314.81 110.42 322.67 113.72
  C 344.90 123.03 371.57 107.79 387.29 93.03
  Q 389.71 90.77 386.79 92.34
  C 366.86 103.08 331.88 119.35 315.30 93.95
  C 312.63 89.85 313.26 81.69 314.12 77.03
  C 316.35 64.94 326.38 57.93 337.42 54.62
  C 352.15 50.21 368.50 49.19 383.78 49.93
  A 0.61 0.61 0.0 0 1 384.36 50.48
  C 385.61 65.27 400.49 73.56 413.49 66.12
  A 1.16 1.15 -32.0 0 1 415.02 66.47
  C 428.32 85.63 446.18 103.42 467.41 113.36
  C 486.77 122.42 511.34 122.16 523.46 101.49
  C 530.92 88.78 528.21 70.49 515.33 62.68
  C 500.72 53.83 479.87 58.39 464.23 62.96
  Q 462.41 63.49 461.40 63.95
  Q 460.22 64.49 461.51 64.39
  C 475.02 63.36 504.89 60.01 514.20 74.03
  C 518.53 80.55 518.09 88.78 514.07 95.51
  C 499.77 119.51 466.38 102.72 449.87 90.99
  Q 432.53 78.66 417.95 63.22
  A 0.84 0.81 43.7 0 1 417.91 62.13
  Q 421.86 57.41 422.41 51.24
  A 1.46 1.45 -4.1 0 1 423.53 49.95
  Q 471.54 38.71 520.74 34.80
  C 568.31 31.01 615.19 43.83 642.11 86.05
  C 656.74 109.00 663.67 134.97 667.27 161.76
  Q 667.51 163.54 665.36 169.62
  Q 663.91 173.71 664.50 180.62
  Q 665.63 193.84 676.53 197.92
  C 689.28 202.70 702.26 195.24 707.28 183.29
  Q 710.41 175.80 709.86 167.41
  Q 709.84 166.98 709.42 166.89
  L 708.99 166.80
  Q 708.22 166.63 708.15 167.42
  C 707.11 180.42 699.71 194.96 684.71 194.28
  C 675.97 193.89 670.13 187.50 670.96 178.46
  C 673.30 153.01 705.59 142.90 726.65 144.58
  C 761.42 147.35 786.78 175.98 794.13 208.52
  C 799.04 230.29 799.26 253.45 797.80 275.63
  Q 796.56 294.65 793.74 312.91
  Q 793.33 315.54 793.17 312.88
  C 791.99 293.25 781.74 274.44 760.96 270.46
  C 753.26 268.99 742.45 269.06 735.90 273.92
  C 705.89 296.15 723.42 334.52 743.76 355.16
  Z
  M 307.36 309.40
  C 310.72 310.86 314.17 312.36 317.53 313.18
  Q 340.45 318.75 358.80 305.34
  C 383.43 287.33 385.52 250.31 362.72 229.78
  C 339.48 208.86 302.18 214.70 287.08 242.33
  C 278.11 258.75 279.35 277.09 289.44 293.29
  A 1.31 1.28 35.6 0 1 289.61 294.25
  Q 286.70 308.74 286.23 313.49
  C 282.11 355.43 297.68 400.33 332.46 425.69
  C 345.28 435.05 360.95 441.19 376.51 444.67
  C 402.71 450.55 431.36 453.83 457.92 448.77
  Q 458.61 448.64 458.44 447.96
  L 458.25 447.20
  Q 458.08 446.53 457.39 446.60
  Q 437.24 448.48 416.98 445.15
  C 398.69 442.15 380.11 437.80 363.04 430.44
  C 323.78 413.49 301.91 373.73 303.86 331.75
  Q 304.34 321.44 306.73 309.73
  Q 306.85 309.17 307.36 309.40
  Z
  M 415.66 329.17
  Q 436.05 383.09 456.25 437.37
  Q 456.76 438.74 457.74 442.07
  C 458.77 445.60 460.98 450.24 461.79 452.35
  Q 475.48 488.13 489.12 523.70
  A 0.41 0.41 0.0 0 1 488.74 524.25
  L 451.50 524.25
  Q 451.25 524.25 451.25 524.50
  L 451.27 530.46
  Q 451.27 530.75 451.56 530.75
  L 562.24 530.76
  A 0.26 0.25 0.0 0 0 562.50 530.51
  L 562.50 524.50
  Q 562.50 524.25 562.25 524.25
  L 530.73 524.25
  Q 530.16 524.25 529.96 523.72
  L 434.43 272.48
  Q 434.24 272.00 433.73 272.00
  L 429.24 272.01
  Q 428.71 272.01 428.53 272.51
  L 373.53 425.74
  A 0.87 0.87 0.0 0 0 374.14 426.88
  L 379.24 428.14
  Q 380.03 428.33 380.30 427.56
  L 415.20 329.18
  Q 415.43 328.55 415.66 329.17
  Z
  M 357.02 492.25
  C 361.91 478.83 366.92 465.42 371.64 451.94
  Q 371.87 451.29 371.24 451.03
  L 365.99 448.82
  A 0.67 0.67 0.0 0 0 365.10 449.21
  Q 355.32 476.50 345.42 503.96
  Q 343.82 508.42 340.67 514.22
  Q 335.81 523.20 325.78 523.88
  Q 316.84 524.49 308.35 524.21
  Q 307.99 524.20 308.00 524.55
  L 308.01 530.51
  Q 308.01 530.75 308.25 530.75
  L 388.25 530.75
  A 0.25 0.25 0.0 0 0 388.50 530.50
  L 388.50 524.51
  A 0.27 0.26 1.1 0 0 388.24 524.25
  C 379.34 524.01 350.83 527.77 350.98 513.53
  Q 351.00 511.98 352.93 505.01
  Q 354.72 498.56 357.02 492.25
  Z"
/>
<path fill="#0b2c4f" d="
  M 306.73 309.73
  Q 304.34 321.44 303.86 331.75
  C 301.91 373.73 323.78 413.49 363.04 430.44
  C 380.11 437.80 398.69 442.15 416.98 445.15
  Q 437.24 448.48 457.39 446.60
  Q 458.08 446.53 458.25 447.20
  L 458.44 447.96
  Q 458.61 448.64 457.92 448.77
  C 431.36 453.83 402.71 450.55 376.51 444.67
  C 360.95 441.19 345.28 435.05 332.46 425.69
  C 297.68 400.33 282.11 355.43 286.23 313.49
  Q 286.70 308.74 289.61 294.25
  A 1.31 1.28 35.6 0 0 289.44 293.29
  C 279.35 277.09 278.11 258.75 287.08 242.33
  C 302.18 214.70 339.48 208.86 362.72 229.78
  C 385.52 250.31 383.43 287.33 358.80 305.34
  Q 340.45 318.75 317.53 313.18
  C 314.17 312.36 310.72 310.86 307.36 309.40
  Q 306.85 309.17 306.73 309.73
  Z"
/>
<path fill="#0b2c4f" d="
  M 415.66 329.17
  Q 415.43 328.55 415.20 329.18
  L 380.30 427.56
  Q 380.03 428.33 379.24 428.14
  L 374.14 426.88
  A 0.87 0.87 0.0 0 1 373.53 425.74
  L 428.53 272.51
  Q 428.71 272.01 429.24 272.01
  L 433.73 272.00
  Q 434.24 272.00 434.43 272.48
  L 529.96 523.72
  Q 530.16 524.25 530.73 524.25
  L 562.25 524.25
  Q 562.50 524.25 562.50 524.50
  L 562.50 530.51
  A 0.26 0.25 -0.0 0 1 562.24 530.76
  L 451.56 530.75
  Q 451.27 530.75 451.27 530.46
  L 451.25 524.50
  Q 451.25 524.25 451.50 524.25
  L 488.74 524.25
  A 0.41 0.41 0.0 0 0 489.12 523.70
  Q 475.48 488.13 461.79 452.35
  C 460.98 450.24 458.77 445.60 457.74 442.07
  Q 456.76 438.74 456.25 437.37
  Q 436.05 383.09 415.66 329.17
  Z"
/>
<path fill="#0b2c4f" d="
  M 371.64 451.94
  C 366.92 465.42 361.91 478.83 357.02 492.25
  Q 354.72 498.56 352.93 505.01
  Q 351.00 511.98 350.98 513.53
  C 350.83 527.77 379.34 524.01 388.24 524.25
  A 0.27 0.26 1.1 0 1 388.50 524.51
  L 388.50 530.50
  A 0.25 0.25 0.0 0 1 388.25 530.75
  L 308.25 530.75
  Q 308.01 530.75 308.01 530.51
  L 308.00 524.55
  Q 307.99 524.20 308.35 524.21
  Q 316.84 524.49 325.78 523.88
  Q 335.81 523.20 340.67 514.22
  Q 343.82 508.42 345.42 503.96
  Q 355.32 476.50 365.10 449.21
  A 0.67 0.67 0.0 0 1 365.99 448.82
  L 371.24 451.03
  Q 371.87 451.29 371.64 451.94
  Z"
/>
</svg>
